<svg id="Layer_1" data-name="Layer 1" xmlns="http://www.w3.org/2000/svg" viewBox="0 0 1000 1000"><defs><style>.cls-1{fill:#fff;}</style></defs><title>01_principal_história</title><path id="_1" data-name="1" class="cls-1" d="M743.33,699.49,725,696.16V685.33a33.76,33.76,0,0,0-25-32.5L591.67,623.66a182.74,182.74,0,0,0,41.66-115.83c0-12.5-1.66-25-4.16-38.34l10-17.5c1.66-3.33,1.66-7.5-.84-10l-14.16-15.83,32.5-9.17c2.5-.83,4.16-1.66,5-4.16l83.33-145c2.5-4.17,1.67-9.17-.83-13.34-3.34-3.33-8.34-5-12.5-3.33l-70,25.83a294.63,294.63,0,0,0-60.84,30,8.75,8.75,0,0,0-4.16,7.5v10l-5-2.5q-5-3.75-10,0a302.22,302.22,0,0,0-35,30,185.93,185.93,0,0,0-65.84-25l6.67-3.33a8,8,0,0,0-7.5-14.17l-33.33,16.67c-5.84,2.5-5.84,10-.84,14.17l33.34,25a11.83,11.83,0,0,0,5,1.66,7.56,7.56,0,0,0,6.66-3.33c2.5-3.33,1.67-9.17-1.66-11.67l-10-7.5a155.23,155.23,0,0,1,56.66,20.84c-3.33,4.16-7.5,7.5-10.83,11.66a8,8,0,0,0-1.67,7.5l4.17,15c-26.67-19.16-59.17-27.5-93.33-23.33-60,7.5-109.17,55.83-115.84,116.67a134.23,134.23,0,0,0,75,136.66l-44.16,11.67c-41.67-32.5-65.84-81.67-65.84-133.33a166.53,166.53,0,0,1,90-148.34c4.17-2.5,5.84-7.5,3.34-10.83-2.5-4.17-7.5-5.83-10.84-3.33C305,377,266.67,438.66,266.67,507.83c0,52.5,23.33,102.5,62.5,137.5L300,652.83c-14.17,4.16-25,17.5-25,32.5v10.83l-18.33,3.33a8.12,8.12,0,0,0-6.67,8.34v33.33a7.54,7.54,0,0,0,2.5,5.83,9.46,9.46,0,0,0,6.67,2.5l199.16-20.83c2.5,11.67,12.5,20.83,25,20.83h33.34c12.5,0,22.5-9.16,25-20.83l199.16,20.83h.84a7.55,7.55,0,0,0,5.83-2.5,9,9,0,0,0,2.5-5.83V707.83A8.12,8.12,0,0,0,743.33,699.49Zm-170-80.83-29.16-8.33c-2.5-.84-5.84-.84-8.34-1.67,26.67-22.5,44.17-55,46.67-90a76.3,76.3,0,0,0,33.33-27.5,122.43,122.43,0,0,1,.84,16.67C616.67,549.49,601.67,588.66,573.33,618.66ZM532.5,565.33c-4.17-2.5-5-7.5-3.33-11.67,2.5-4.17,7.5-5,11.66-3.33L555,558.66c-2.5,5-5,10-8.33,14.17ZM648.33,402l-42.5,11.67a8.22,8.22,0,0,0-5.83,5.83c-.83,2.5,0,5.84,1.67,8.34l19.16,21.66L602.5,481.16c-7.5,12.5-19.17,21.67-32.5,25-12.5,3.33-25.83,2.5-37.5-3.33A825.33,825.33,0,0,1,710.83,293.66ZM509.17,427c1.66-3.33,4.16-6.66,6.66-10.83l21.67,12.5c3.33,1.67,6.67,1.67,9.17-.83s4.16-5.84,3.33-8.34l-10-35.83c4.17-5,8.33-10,13.33-14.17l.84-.83c10-10.83,21.66-20.83,33.33-30l14.17,10.83a8.94,8.94,0,0,0,9.16.84,8.76,8.76,0,0,0,4.17-7.5l-.83-22.5c16.66-10.84,35-19.17,53.33-25.84l30.83-11.66c-70.83,60-131.66,130.83-179.16,210.83-7.5-6.67-12.5-15.83-15-25.83C500,453.66,502.5,439.49,509.17,427Zm-32.5,140,34.16-58.33,10,7.5a6.37,6.37,0,0,0,3.34,1.67l-33.34,57.5a8.73,8.73,0,0,1-7.5,4.16,7.52,7.52,0,0,1-4.16-.83C475.83,576.16,474.17,570.33,476.67,567ZM515,604.49a124.57,124.57,0,0,1-14.17,8.34l-8.33-14.17c-2.5-4.17-.83-9.17,3.33-11.67s9.17-.83,11.67,3.34ZM441.67,382.83h16.66v25c0,5-3.33,8.33-8.33,8.33s-8.33-3.33-8.33-8.33ZM418.33,536.16l23.34-30.83V441.16c0-5,3.33-8.33,8.33-8.33s8.33,3.33,8.33,8.33v66.67a11.92,11.92,0,0,1-1.66,5l-25,33.33a7.59,7.59,0,0,1-6.67,3.33,11.88,11.88,0,0,1-5-1.66C416.67,545.33,415.83,539.49,418.33,536.16Zm40,71.67v2.5a3.08,3.08,0,0,0-2.5.83l-14.16,3.33v-6.66c0-4.17,4.16-8.34,8.33-8.34S458.33,603.66,458.33,607.83Zm-59.16-205L407.5,417c2.5,4.17.83,9.17-3.33,11.67a7.55,7.55,0,0,1-4.17.83,9.94,9.94,0,0,1-7.5-4.16l-8.33-14.17A135.33,135.33,0,0,1,399.17,402.83Zm-65.84,105v-8.34H350c4.17,0,8.33,4.17,8.33,8.34s-4.16,8.33-8.33,8.33H333.33Zm34.17,57.5-14.17,8.33c-3.33-4.17-5.83-9.17-8.33-14.17l14.17-8.33c4.16-2.5,9.16-.83,11.66,3.33C373.33,557.83,371.67,562.83,367.5,565.33ZM370.83,462a8.74,8.74,0,0,1-7.5,4.17,7.52,7.52,0,0,1-4.16-.83L345,457c2.5-5,5-10,8.33-14.16l14.17,8.33A7.35,7.35,0,0,1,370.83,462ZM385,604.49l8.33-14.16c2.5-4.17,7.5-5,11.67-3.34,4.17,2.5,5,7.5,3.33,11.67L400,612.83C394.17,610.33,389.17,607.83,385,604.49ZM291.67,692v-6.66a16.07,16.07,0,0,1,12.5-15.84L460,627.83c7.5-1.67,15.83-.84,21.67,4.16l.83.84a23.63,23.63,0,0,1,8.33,18.33Zm216.66,7.5c0,4.17-4.16,8.34-8.33,8.34s-8.33-4.17-8.33-8.34V667.83l8.33-1.67,8.33,1.67Zm200-7.5-200-41.66a24.87,24.87,0,0,1,10-20A22.58,22.58,0,0,1,540,626.16l155.83,41.67a16,16,0,0,1,12.5,15.83Z"/></svg>