<svg id="Layer_1" data-name="Layer 1" xmlns="http://www.w3.org/2000/svg" viewBox="0 0 1000 1000"><defs><style>.cls-1{fill:#fff;}</style></defs><title>02_principal_academy</title><g id="_2" data-name="2"><path class="cls-1" d="M328,464.52h13.5l13,33.49,6.32,20.13c-.27-3.67-.54-7.38-.83-11.12s-.54-7.4-.76-11-.38-6.75-.47-9.44-.14-4.91-.14-6.64V464.52h13v69.05H358.29l-13.77-33.9-5.7-18.43q.31,4.31.59,8.34c.18,2.69.39,5.91.63,9.64s.41,7,.53,9.73.18,5.11.18,7.09v17.53H328Z"/><path class="cls-1" d="M422.27,474.69H407.39v58.88H394.56V474.69H379.49V464.52h42.78Z"/><path class="cls-1" d="M425.86,464.52h13.5l7,47,1.08,14.17,1.21-14.17,7.89-47h11l8.34,47,1.3,14.17,1.3-14.17,6.41-47h13.32l-12.78,69.05H470L464,500.25l-2-16.54-1.84,16.54-5.34,33.32h-15.6Z"/><path class="cls-1" d="M540.38,464.52h17.53l15.43,69.05H559.48l-3.23-17.35H541.19l-3.54,17.35H524ZM554.15,506,550,482.77l-1.12-10.54h-.18l-1,10.54L543,506Z"/><path class="cls-1" d="M608.18,486q-.13-6.32-1.68-9.35a5.63,5.63,0,0,0-4.78-3.29q-9.13,0-9.14,12.64v23.72a32.79,32.79,0,0,0,.92,8.61,9.46,9.46,0,0,0,2.75,4.87,6.88,6.88,0,0,0,4.58,1.55,6.12,6.12,0,0,0,4.68-1.75,9.89,9.89,0,0,0,2.24-5.09,51.72,51.72,0,0,0,.61-8.95h13q-.32,6.42-.61,9.19a27.08,27.08,0,0,1-2,7.09,15.91,15.91,0,0,1-5.83,7.15q-4.08,2.85-10.94,2.85a31.36,31.36,0,0,1-10.76-1.59,15,15,0,0,1-6.88-5,21.9,21.9,0,0,1-3.75-8.9,67.05,67.05,0,0,1-1.16-13.47V494.65q0-11.61,2-18.48t6.64-9.95q4.63-3.09,12.67-3.18Q612,463,616.48,469t4.44,17Z"/><path class="cls-1" d="M642.71,464.52h17.53l15.42,69.05H661.81l-3.23-17.35H643.51L640,533.57H626.34ZM656.47,506l-4.12-23.18-1.12-10.54h-.18l-1,10.54L645.35,506Z"/><path class="cls-1" d="M683.2,464.52H708a20.81,20.81,0,0,1,8.61,1.61,14.25,14.25,0,0,1,6,5.13,25.69,25.69,0,0,1,3.54,9.13,68.64,68.64,0,0,1,1.17,13.76q0,3.6-.09,5.52-.41,8.83-.92,13.72a39.51,39.51,0,0,1-2.31,9.66,16.7,16.7,0,0,1-5.59,7.65q-3.78,2.87-10.15,2.87h-25Zm13,10.17v48.88H703q5.12,0,7.45-2.85a14.62,14.62,0,0,0,2.89-7.73,142.62,142.62,0,0,0,.56-14.75,122.13,122.13,0,0,0-.74-13.68c-.44-3.32-1.27-5.79-2.51-7.42a6.43,6.43,0,0,0-5.45-2.45Z"/><path class="cls-1" d="M738.58,464.52h36.27v10.17H751.53v17.45h21.39v10H751.53v21.39h23.32v10H738.58Z"/><path class="cls-1" d="M784.67,464.52h20.67l7.72,36.27,1.66,12.11,1.16-12.11,7.76-36.27h20.45v69.05h-13v-39.1l1.12-23.72h-.18L818.3,533.57h-7.71l-13.9-62.82h-.18l1.12,25.92v36.9h-13Z"/><path class="cls-1" d="M875.56,493.35a48.48,48.48,0,0,1,2.6-8.75l7.9-20.08H900l-18.07,39.86v29.19H869V504.38l-17.89-39.86H865l8.08,20.08a48.42,48.42,0,0,1,2.28,8.75Z"/><path class="cls-1" d="M100.22,493.52c-.14,2.14-.22,4.3-.22,6.48a98.87,98.87,0,0,0,12.64,48.52L145,493.87l30.2-2.89-46.63,78.73a99.59,99.59,0,0,0,20.82,16.18L210.2,483Zm84.4-3.44,17.18-1.64-10.2,17.22Z"/><path class="cls-1" d="M281.71,555.67a99.39,99.39,0,1,0-167.41-107l75.41-7.54,8.07,18.07-92.59,9.08c-.45,1.34-.87,2.69-1.27,4l130.44-12.45Z"/><path class="cls-1" d="M168.65,594.53a99.78,99.78,0,0,0,62.52-.35l-24.85-55.59,15.27-26.27,31.78,71.12A98.94,98.94,0,0,0,267.9,572l-39.58-80.12Z"/></g></svg>