<svg id="Layer_1" data-name="Layer 1" xmlns="http://www.w3.org/2000/svg" viewBox="0 0 1000 1000"><defs><style>.cls-1{fill:#fff;}</style></defs><title>03_principal_digital</title><g id="_3" data-name="3"><path class="cls-1" d="M287.92,472.87c-.74-1.28-1.46-2.57-2.23-3.83q-3-5-6-10l-5.9-9.8c-.11-.19-.19-.51-.47-.48s-.34.39-.44.64c-.87,2.12-1.78,4.24-2.59,6.39a60.41,60.41,0,0,0-2.38,6.25,6.72,6.72,0,0,0-1,2.22Q251.11,503,235.37,541.8c-2.59,6.33-6.71,11.46-13,14.51-7.36,3.55-15.65,2.22-21-3.36-3.76-4-5.12-8.79-5-14.12a32.31,32.31,0,0,1,2.76-11.69l38-90.79c.1-.25.19-.51.35-.93l-4.67,1.12c-9.32,2.31-18.61,4.74-28,6.88a24.46,24.46,0,0,1-16.36-1.62c-11.83-5.66-13.69-20.65-3.62-29.07A28.69,28.69,0,0,1,198,406.84c13.8-2.79,27.41-6.41,41-9.94,9.73-2.52,19.49-4.92,29.31-7,.39-.08.85.07,1.15-.31h2.69a9.76,9.76,0,0,0,2.05.51,13.94,13.94,0,0,1,7.35,5.39c2.53,3.44,4.65,7.14,7,10.72,2.42,3.75,4.8,7.53,7.2,11.29.18.29.41.55.61.82a3.35,3.35,0,0,0,.21.47l10,15.66c5.46,8.55,10.86,17.14,16.39,25.64a21,21,0,0,1,3.7,11.8,18.49,18.49,0,0,1-3.58,9.66,7.9,7.9,0,0,0-.53.88,9.16,9.16,0,0,0-1.58,1.47c-5,4.5-10.7,6.41-17.31,4.71-5.29-1.35-9-4.89-11.82-9.39C290.5,477.09,289.36,474.89,287.92,472.87Z"/><path class="cls-1" d="M778.36,482.42h-.15c0-1.17,0-2.35,0-3.52h.16Z"/><path class="cls-1" d="M603.5,482.16h-.41c0-.13,0-.29-.21-.29s-.18.16-.2.3c-7.72.25-15.45.35-23.17.36-1.07,0-1.28.29-1.26,1.31q.33,22.27.58,44.56a27.14,27.14,0,0,0,.26,4,6.26,6.26,0,0,0,4,5.2,27.82,27.82,0,0,0,7.65,1.65c3,.3,5.9.51,8.86.75,6.37.51,9.51,5.38,7.43,11.94a9.14,9.14,0,0,1-5.82,5.74c-3,1.2-6.27,1.3-9.47,1.37a149.11,149.11,0,0,1-26.71-1.41,32.65,32.65,0,0,1-14.24-5.75c-5.06-3.65-7.5-8.84-8.57-14.8a54.18,54.18,0,0,1-.7-9.68q0-21.81,0-43.63c0-1-.22-1.27-1.24-1.27a118,118,0,0,1-13.42-.49,7.91,7.91,0,0,1-7.14-6.21,9,9,0,0,1,2.79-9.56c1.71-1.51,3.88-1.68,6-1.85,3.95-.31,7.92-.22,11.89-.19.83,0,1.11-.17,1.1-1.06-.06-4,0-7.93,0-11.89A22,22,0,0,1,546,437.38c4.24-5.47,9.9-7.54,16.69-6.78a27,27,0,0,1,4.94,1c5.74,1.76,8.67,6,10.22,11.49a23.23,23.23,0,0,1,.85,6.43c0,4.48,0,9,0,13.44,0,.91.19,1.21,1.17,1.2,7.51,0,15,0,22.55,0,.38,0,.76,0,1.13,0Z"/><path class="cls-1" d="M326.64,471.86a21,21,0,0,0-3.7-11.8c-5.53-8.5-10.93-17.09-16.39-25.64l-10-15.66a3.35,3.35,0,0,1-.21-.47c3.91-1.23,7.89-2.19,11.86-3.17,5.68-1.39,11.36-2.8,17.14-3.75,4.83-.79,8.83.41,11.9,4.41,2.72,3.53,5,7.34,7.37,11.1q16.94,26.76,33.84,53.53c2.08,3.3,3.74,6.78,4,10.72.5,7.32-2.77,12.65-9,16.13a18.61,18.61,0,0,1-25.38-6.55q-9.79-15.51-19.51-31.06c-.18-.28-.28-.63-.63-.82Z"/><path class="cls-1" d="M480.8,462.12c9.91.06,19.35,1.84,28,7.05,5.59,3.38,8.29,8.3,8.65,14.71.27,4.75.09,9.5.07,14.26-.07,12.05,0,24.11-.06,36.17a43.84,43.84,0,0,1-1,10.15c-1.8,7.49-6.14,11.46-13.75,12.57a19.15,19.15,0,0,1-21.51-13.92,15.5,15.5,0,0,1-.56-4.29q0-20.46,0-40.92a35.53,35.53,0,0,0-.41-6.18c.72-.48.59-1.23.59-1.92Q480.81,476,480.8,462.12Z"/><path class="cls-1" d="M443.77,479a3.84,3.84,0,0,1,1-1q0,6.38,0,12.77a5.79,5.79,0,0,0,.21,1.61l-.36.32c-.29-.5-.66-.27-.92,0s-.61.62-.08,1a3.15,3.15,0,0,0-.67,2.31c.12,8.58.27,17.16.31,25.75,0,5.72,0,11.44-.16,17.16a29.36,29.36,0,0,1-1.62,9.32,13.57,13.57,0,0,1-11.12,9.33,27,27,0,0,1-12.79-.62c-6-1.82-9.07-6.14-10.24-12.07a33.4,33.4,0,0,1-.64-6.47c0-16.61,0-33.22,0-49.84a38.22,38.22,0,0,1,2.49-14.26c2.14-5.31,5.79-8.92,11.61-9.9a22.25,22.25,0,0,1,12.28,1.34,13.71,13.71,0,0,1,7,6.77,54.91,54.91,0,0,1,2.46,6c.15.4.13.91.6,1.15.05.22.18.4.41.27S443.69,479.25,443.77,479Z"/><path class="cls-1" d="M287.92,472.87c1.44,2,2.58,4.22,3.9,6.32,2.84,4.5,6.53,8,11.82,9.39,6.61,1.7,12.34-.21,17.31-4.71a9.16,9.16,0,0,1,1.58-1.47c-1.32,3.43-2.62,6.87-3.95,10.3-6.41,16.48-12.79,33-19.27,49.42-2.38,6-6.17,11-12.17,13.91a17.63,17.63,0,0,1-25.53-14.55,24.53,24.53,0,0,1,2-11.8c7.33-17.33,14.34-34.8,22.07-52C286.38,476.09,287.16,474.48,287.92,472.87Z"/><path class="cls-1" d="M603.5,482.16V464.23l5,0c7.14-.07,14.27.12,21.4-.14,5.4-.2,9.48,2.12,12.33,6.68,2.22,3.56,3.62,7.49,5.17,11.34q7.18,17.9,14.35,35.8c.13.33.12.77.56.92v39.32a21.37,21.37,0,0,1-15.66-6.27,27.08,27.08,0,0,1-7-11c-5.85-16.79-13-33.08-19.75-49.5-1.2-2.89-2.39-5.78-3.52-8.69a1.16,1.16,0,0,0-1.36-.87C611.15,482,607.33,482.06,603.5,482.16Z"/><path class="cls-1" d="M778.2,478.9c0,1.17,0,2.35,0,3.52a24,24,0,0,1-1.91,7c-4.93,11.28-9,22.9-13.47,34.38-2.92,7.57-6,15.09-9.54,22.39-3.09,6.32-8,10.33-15,11.58-.78.13-1.57.14-2.36.21V515.89a2.77,2.77,0,0,0-.24-1.5c1.35-3.82,2.68-7.65,4-11.47q4.62-12.87,9.26-25.72a18.78,18.78,0,0,1,9.38-10.56c7.06-3.62,15.37-.4,18.51,7.07A19.86,19.86,0,0,1,778.2,478.9Z"/><path class="cls-1" d="M662.27,558.11V518.79c3.07-8,6.12-16,9.22-23.94,2.34-6,4.81-11.92,7.54-17.73a34,34,0,0,1,3.07-5.37A15.63,15.63,0,0,1,693.58,465a39.44,39.44,0,0,1,5.94-.33,10.33,10.33,0,0,0-.21,2.35q0,18,0,36c0,.39.28.93-.36,1.14l-1-2.27a52,52,0,0,0-2.73,5.57c-1,2.36-2,4.77-2.9,7.17-.88,2.24-1.69,4.5-2.55,6.74-3.43,9-6.32,18.14-11,26.59-3.09,5.61-7.65,9.21-14.13,10.09A9.89,9.89,0,0,1,662.27,558.11Z"/><path class="cls-1" d="M698.94,504.13c.64-.21.36-.75.36-1.14q0-18,0-36a10.33,10.33,0,0,1,.21-2.35,15.66,15.66,0,0,1,12.62,6.57,44.45,44.45,0,0,1,4.82,8.86q6.12,13.76,12.26,27.49c1.45,3.27,2.85,6.55,4.28,9.83.14.34.32.67.55,1.17l1.65-4.19a2.77,2.77,0,0,1,.24,1.5V558a23.48,23.48,0,0,1-5.08-.45,18.9,18.9,0,0,1-5.78-2,19.84,19.84,0,0,1-9-9.72c-5.29-11.88-10-24-14.86-36.06C700.42,507.9,699.69,506,698.94,504.13Z"/><path class="cls-1" d="M445,492.33a5.79,5.79,0,0,1-.21-1.61q0-6.39,0-12.77a53.38,53.38,0,0,1,10.54-8.22,51.79,51.79,0,0,1,15.44-6.61,31.71,31.71,0,0,1,10.08-1q0,13.85,0,27.68c0,.69.13,1.44-.59,1.92-1.51-4.82-5-6.81-9.83-7.48-9.4-1.32-17,2.83-24.53,7.51Z"/><path class="cls-1" d="M684.41,619.34a20.92,20.92,0,0,1-2.55,3.12,9.6,9.6,0,0,1-13.37-.57,17.93,17.93,0,0,1-4.1-9.84,44,44,0,0,1,1.4-19.29c.8-2.54,1.88-4.91,4.27-6.37a10.07,10.07,0,0,1,12.63,1.3c.58.58,1.12,1.2,1.67,1.8l.26-.1c0-.94,0-1.89,0-2.82,0-.57.12-.78.73-.76,1.27,0,2.55.05,3.82,0,.68,0,.86.16.86.84,0,4.52,0,9,0,13.55,0,6.72,0,13.44-.07,20.15a25.7,25.7,0,0,1-1.34,8.63,11,11,0,0,1-9.28,7.48,14.64,14.64,0,0,1-8.69-1,9.28,9.28,0,0,1-5.25-7.09c-.16-.81.07-1,.86-1a10.5,10.5,0,0,0,1.86,0c1.38-.1,2.44-.16,3,1.7s2.43,2.72,4.39,3a10.08,10.08,0,0,0,3.79-.23,5.57,5.57,0,0,0,3.92-3.37A20,20,0,0,0,684.41,619.34Zm.22-14.08a63.11,63.11,0,0,0-.46-7.52,11.39,11.39,0,0,0-2.31-6,6.29,6.29,0,0,0-10.1.65,11.45,11.45,0,0,0-1.22,2.72,36.73,36.73,0,0,0-1.2,11.76,25.33,25.33,0,0,0,1.56,9.2,6,6,0,0,0,5.26,4,6.23,6.23,0,0,0,6.47-3.32,12.2,12.2,0,0,0,1.19-2.84A37.44,37.44,0,0,0,684.63,605.26Z"/><path class="cls-1" d="M635.21,618.9c-.67,1-1.17,1.65-1.66,2.36-3.69,5.31-12.4,4.66-15.72-.63a19.63,19.63,0,0,1-2.87-8.94,56.86,56.86,0,0,1,1-17.65,13.2,13.2,0,0,1,3.57-6.63,9.69,9.69,0,0,1,14.28,1.06l1.19,1.45v-1.2c0-5.06,0-10.13,0-15.19,0-.76.16-1,.95-1,1.27.07,2.55,0,3.82,0,.51,0,.7.16.63.65a4.34,4.34,0,0,0,0,.51q0,24.51,0,49c0,.93-.22,1.24-1.17,1.17a22.78,22.78,0,0,0-3.2,0c-.66,0-.82-.2-.79-.82C635.24,621.77,635.21,620.48,635.21,618.9Zm-14.86-13.12c0,1.24-.07,2.48,0,3.72.15,2.54.32,5.09,1.57,7.4A6.36,6.36,0,0,0,632.35,618a10.14,10.14,0,0,0,2-4.6,45.14,45.14,0,0,0,.08-16.51,11.26,11.26,0,0,0-2.11-5.21,5.73,5.73,0,0,0-9.58.49,11.46,11.46,0,0,0-1.23,2.83A35.3,35.3,0,0,0,620.35,605.78Z"/><path class="cls-1" d="M749.74,618.69c-.35.63-.62,1.14-.91,1.63-3.57,6.06-11.6,5.46-15.08,1.81a7.53,7.53,0,0,1-1.88-3.83,18.6,18.6,0,0,1-.12-7.17,8.57,8.57,0,0,1,5.38-6.69c3.34-1.43,6.73-2.77,10.11-4.12,1.84-.73,2.15-1.14,2.15-3.14v-2.79c0-2.94-1.37-4.56-4.27-5a11,11,0,0,0-4.11.21c-2.06.48-2.7,2-3,3.88a4.65,4.65,0,0,0-.12,1.33c.17,1.1-.39,1.24-1.29,1.17a15.11,15.11,0,0,0-2.69,0c-.84.08-.94-.27-.93-1,.11-6.3,3.66-10,10-10.22a18.75,18.75,0,0,1,4.72.39,7.78,7.78,0,0,1,6.63,7.38q.21,2.1.21,4.23,0,10,0,20a11.31,11.31,0,0,0,.13,1.84c.21,1.22.78,1.64,2,1.43.89-.14,1.37,0,1.17,1a1.33,1.33,0,0,0,0,.2c0,2.69,0,2.69-2.71,2.82h-.93c-2.52-.09-3.77-1.18-4.23-3.66C749.93,619.89,749.85,619.36,749.74,618.69ZM749,603.3c-2.94,1.42-5.72,2.75-8.49,4.11a5.55,5.55,0,0,0-2.84,3.26,11,11,0,0,0-.56,4.17c.18,3.47,2.28,5.66,5.24,5.53,3.29-.13,6.5-3.1,6.62-6.39C749.06,610.48,749,607,749,603.3Z"/><path class="cls-1" d="M716.07,604.75c0-4.48,0-9,0-13.44,0-.78-.18-1-1-1-1.2.07-2.41,0-3.62,0-.48,0-.66-.13-.64-.63,0-1.1,0-2.21,0-3.31,0-.51.16-.64.65-.63,1.27,0,2.55,0,3.82,0,.59,0,.75-.16.75-.74,0-2.93,0-5.86,0-8.79,0-.69.2-.86.86-.83,1.24,0,2.49.06,3.72,0,.73,0,.83.25.83.88,0,2.86,0,5.72,0,8.58,0,.7.13,1,.88.92,1.62-.06,3.25,0,4.87,0,.53,0,.71.14.69.69,0,1.06,0,2.13,0,3.2,0,.56-.17.69-.7.68-1.65,0-3.31,0-5,0-.55,0-.78.08-.78.71,0,8.69,0,17.37,0,26,0,1.51.64,2.14,2.14,2.19,1.1,0,2.21,0,3.31,0,.52,0,.74.11.72.68,0,1.06,0,2.13,0,3.2,0,.36,0,.7-.5.68-2.45-.09-4.9.2-7.33-.18a3.7,3.7,0,0,1-3.52-3.77c-.4-4.23-.11-8.47-.19-12.7C716.06,606.4,716.07,605.57,716.07,604.75Z"/><path class="cls-1" d="M764.5,598.12c0-8.17,0-16.33,0-24.5,0-.86.21-1.11,1.07-1a33.63,33.63,0,0,0,3.62,0c.61,0,.78.2.72.76a10.84,10.84,0,0,0,0,1.14q0,24.13,0,48.26c0,.95-.23,1.24-1.17,1.16a22.86,22.86,0,0,0-3.31,0c-.81.06-.94-.22-.94-1C764.51,614.66,764.5,606.39,764.5,598.12Z"/><path class="cls-1" d="M650.68,604.86c0-6,0-12.06,0-18.09,0-.74.13-1,.94-1a29.84,29.84,0,0,0,3.41,0c.67,0,.86.16.85.84,0,3.07,0,6.13,0,9.2,0,9,0,18,0,27,0,.84-.16,1.15-1,1.08a21.36,21.36,0,0,0-3.2,0c-.78.06-1-.17-1-.95C650.7,616.91,650.68,610.88,650.68,604.86Z"/><path class="cls-1" d="M700.35,604.74c0-6,0-12,0-18,0-.76.17-1,.95-1a27.72,27.72,0,0,0,3.41,0c.7,0,.85.19.85.85,0,4.07,0,8.13,0,12.2,0,8,0,16,0,24,0,.86-.19,1.13-1.06,1.06a26.11,26.11,0,0,0-3.31,0c-.69,0-.84-.2-.84-.86C700.36,616.94,700.35,610.84,700.35,604.74Z"/><path class="cls-1" d="M267.87,462.06a60.41,60.41,0,0,1,2.38-6.25c.81-2.15,1.72-4.27,2.59-6.39.1-.25.12-.6.44-.64s.36.29.47.48l5.9,9.8Z"/><path class="cls-1" d="M655.86,576.1c0,1,0,1.93,0,2.89,0,.49-.13.65-.63.64q-2,0-3.93,0c-.49,0-.64-.14-.64-.64,0-1.92,0-3.85,0-5.77,0-.49.14-.66.64-.64,1.3,0,2.61,0,3.92,0,.49,0,.66.13.64.63C655.83,574.17,655.86,575.14,655.86,576.1Z"/><path class="cls-1" d="M705.52,576.17c0,.93,0,1.86,0,2.78,0,.57-.18.69-.7.68-1.27,0-2.55,0-3.82,0-.57,0-.68-.19-.67-.71,0-1.89,0-3.78,0-5.67,0-.57.19-.69.71-.67,1.27,0,2.55,0,3.82,0,.57,0,.69.19.67.71C705.49,574.24,705.52,575.21,705.52,576.17Z"/><path class="cls-1" d="M443.63,493.62c-.53-.37-.19-.73.08-1s.63-.48.92,0Z"/><path class="cls-1" d="M443.77,479c-.08.3.15.7-.22.92s-.36-.05-.41-.27Z"/><path class="cls-1" d="M602.68,482.18c0-.14,0-.29.2-.3s.19.16.21.29Z"/></g></svg>