<svg id="Layer_1" data-name="Layer 1" xmlns="http://www.w3.org/2000/svg" viewBox="0 0 1000 1000"><defs><style>.cls-1{fill:#fff;fill-rule:evenodd;}</style></defs><title>04_principal_premiacoes</title><g id="_4" data-name="4"><path class="cls-1" d="M523.79,200,547,243.55,592.67,250,558.44,285.6,566.37,331,522,309.43,481.23,331l6.79-48.9L454.92,250l48.6-8.64ZM418.5,519.28l8.35,8.66a22.46,22.46,0,0,0,1.8,1.72,22,22,0,0,0,2,1.5,23.11,23.11,0,0,0,2.15,1.25,21,21,0,0,0,2.28,1,20.32,20.32,0,0,0,2.38.72,20.67,20.67,0,0,0,2.45.45,23.12,23.12,0,0,0,2.49.16,22.76,22.76,0,0,0,2.48-.13l12.92-1.24a20.13,20.13,0,0,1,2.2-.1c.73,0,1.47,0,2.2.11s1.46.19,2.18.34,1.43.34,2.14.56,1.39.47,2.07.76,1.33.61,2,1a21.61,21.61,0,0,1,1.88,1.16c.6.41,1.19.86,1.75,1.33s1.1,1,1.61,1.51,1,1.09,1.45,1.67a20.74,20.74,0,0,1,1.28,1.79c.39.62.76,1.26,1.09,1.92s.63,1.33.9,2,.49,1.38.69,2.09.35,1.43.47,2.15a20.33,20.33,0,0,1,.27,2.2l.82,12a22.76,22.76,0,0,0,.28,2.47,20.39,20.39,0,0,0,.57,2.43,19.16,19.16,0,0,0,.84,2.34,20.06,20.06,0,0,0,1.1,2.23,24.13,24.13,0,0,0,1.36,2.09,19.39,19.39,0,0,0,1.59,1.91,22.46,22.46,0,0,0,1.8,1.72,22,22,0,0,0,2,1.5L503,589.89a20.77,20.77,0,0,1,1.75,1.34,19.06,19.06,0,0,1,1.61,1.51,21.12,21.12,0,0,1,1.46,1.66c.45.57.88,1.17,1.28,1.79s.76,1.26,1.09,1.92.63,1.33.9,2,.49,1.39.69,2.1a19.64,19.64,0,0,1,.48,2.15,23.12,23.12,0,0,1,.31,4.4,20.2,20.2,0,0,1-.18,2.19c-.09.74-.23,1.46-.39,2.18s-.37,1.42-.61,2.12-.51,1.37-.82,2-.65,1.32-1,2a20.26,20.26,0,0,1-1.21,1.85l-7.08,9.73a19,19,0,0,0-1.37,2.07,21,21,0,0,0-1.13,2.22,21.7,21.7,0,0,0-.86,2.33,21.69,21.69,0,0,0-.63,9.86,22.5,22.5,0,0,0,.56,2.43l3.47,12.5c.19.7.35,1.42.48,2.15s.21,1.45.26,2.19a20.2,20.2,0,0,1,.05,2.2c0,.74-.08,1.47-.17,2.2s-.23,1.46-.4,2.17a19,19,0,0,1-.6,2.12,21.36,21.36,0,0,1-.82,2.05,20.13,20.13,0,0,1-1,2c-.38.64-.78,1.25-1.21,1.85s-.89,1.17-1.38,1.72-1,1.07-1.55,1.57-1.11,1-1.7,1.41-1.2.85-1.83,1.23a21.3,21.3,0,0,1-1.94,1c-.67.32-1.35.6-2,.85s-1.4.46-2.11.64l-11.68,2.9a22.49,22.49,0,0,0-2.39.7,21.89,21.89,0,0,0-2.29,1,23.08,23.08,0,0,0-2.16,1.23,20.65,20.65,0,0,0-2,1.48,20.92,20.92,0,0,0-1.82,1.7,19.47,19.47,0,0,0-1.61,1.9,20.68,20.68,0,0,0-1.38,2.07,21.08,21.08,0,0,0-1.14,2.22l-5.37,11.8c-.31.67-.65,1.32-1,2s-.77,1.25-1.2,1.84-.9,1.17-1.39,1.72a20.76,20.76,0,0,1-1.54,1.57c-.55.5-1.11,1-1.7,1.42s-1.2.85-1.83,1.23a20.05,20.05,0,0,1-1.94,1,22,22,0,0,1-4.15,1.49c-.71.18-1.43.32-2.16.43s-1.46.17-2.2.21-1.47,0-2.2,0a20.25,20.25,0,0,1-2.2-.23,22.24,22.24,0,0,1-4.26-1.11,19.07,19.07,0,0,1-2-.87L412.85,722a21,21,0,0,0-2.28-1,20.32,20.32,0,0,0-2.38-.72,21.57,21.57,0,0,0-7.42-.47,20.38,20.38,0,0,0-2.46.42,21.51,21.51,0,0,0-4.68,1.67l-11.71,5.59a21.14,21.14,0,0,1-2,.84c-.7.25-1.4.47-2.11.65s-1.44.32-2.17.42a22,22,0,0,1-4.4.2,19.81,19.81,0,0,1-2.19-.23c-.73-.11-1.45-.26-2.16-.44s-1.42-.41-2.11-.66-1.37-.55-2-.87a21.44,21.44,0,0,1-1.93-1.07,20.24,20.24,0,0,1-1.82-1.25c-.58-.45-1.14-.92-1.68-1.43s-1.05-1-1.53-1.58-.94-1.14-1.37-1.74-.82-1.22-1.18-1.86a21.25,21.25,0,0,1-1-2l-4.88-11a20.13,20.13,0,0,0-1.11-2.23,21.89,21.89,0,0,0-1.35-2.09,22.46,22.46,0,0,0-1.6-1.91,19.53,19.53,0,0,0-1.8-1.72,20.62,20.62,0,0,0-2-1.49,20.13,20.13,0,0,0-2.15-1.26,21,21,0,0,0-2.28-1,21.8,21.8,0,0,0-2.38-.73l-12.55-3.24c-.72-.19-1.42-.41-2.11-.66s-1.37-.55-2-.87-1.3-.68-1.93-1.06-1.23-.81-1.82-1.25-1.14-.93-1.68-1.43a21.58,21.58,0,0,1-2.9-3.32c-.43-.6-.82-1.22-1.19-1.85a21.42,21.42,0,0,1-1-2c-.3-.68-.56-1.36-.79-2.06s-.43-1.41-.59-2.13-.28-1.44-.37-2.17a22.15,22.15,0,0,1-.08-4.41c.06-.73.15-1.46.28-2.18a19.75,19.75,0,0,1,.51-2.15l3.32-11.57a19.86,19.86,0,0,0,.59-2.42,20.31,20.31,0,0,0,.3-2.47,21.3,21.3,0,0,0-.27-5,20.35,20.35,0,0,0-.56-2.43,19.16,19.16,0,0,0-.84-2.34,20.06,20.06,0,0,0-1.1-2.23,20.79,20.79,0,0,0-1.36-2.09L297,621.24a20.2,20.2,0,0,1-1.19-1.86,21.42,21.42,0,0,1-1-2c-.3-.67-.57-1.36-.8-2s-.42-1.41-.58-2.13a20.11,20.11,0,0,1-.38-2.17,20.51,20.51,0,0,1-.15-2.21,20.2,20.2,0,0,1,.06-2.2c.06-.73.16-1.46.29-2.19s.3-1.44.5-2.15.44-1.4.71-2.08.58-1.36.92-2,.71-1.29,1.11-1.9.84-1.21,1.3-1.79a22.19,22.19,0,0,1,3.1-3.13c.56-.47,1.15-.91,1.76-1.33l10-6.71a24,24,0,0,0,2-1.48,22.46,22.46,0,0,0,1.82-1.7,21.29,21.29,0,0,0,3-4,21,21,0,0,0,1.12-2.22,21.77,21.77,0,0,0,.87-2.33,22.41,22.41,0,0,0,.58-2.42,22.83,22.83,0,0,0,.31-2.47l1-12.93a19.86,19.86,0,0,1,.28-2.19c.13-.72.3-1.44.5-2.15s.44-1.4.71-2.09a21.23,21.23,0,0,1,.92-2c.34-.66.71-1.29,1.11-1.91a20.69,20.69,0,0,1,1.29-1.78,19.23,19.23,0,0,1,1.47-1.65,23.63,23.63,0,0,1,3.39-2.82q.92-.62,1.89-1.14c.65-.35,1.31-.66,2-1a21.39,21.39,0,0,1,2.08-.74c.7-.21,1.42-.39,2.14-.53s1.45-.25,2.18-.32a23.2,23.2,0,0,1,4.41,0l12,1.27a20.74,20.74,0,0,0,5,0,20.56,20.56,0,0,0,2.45-.42,21.59,21.59,0,0,0,6.84-2.91,20.79,20.79,0,0,0,2-1.48,22.46,22.46,0,0,0,1.82-1.7l9.09-9.25c.52-.52,1.06-1,1.62-1.49s1.16-.91,1.77-1.32a21.49,21.49,0,0,1,1.88-1.15c.65-.35,1.32-.66,2-.95s1.37-.53,2.07-.74,1.42-.39,2.14-.53a19.92,19.92,0,0,1,2.19-.32,22.06,22.06,0,0,1,4.4,0c.73.08,1.46.19,2.18.34s1.43.33,2.14.55,1.39.48,2.07.77,1.33.61,2,1a20,20,0,0,1,1.87,1.16,22.09,22.09,0,0,1,3.36,2.85Zm-15.78,37.18c-1.24,0-2.47,0-3.7.1s-2.46.18-3.69.32-2.45.32-3.66.53-2.43.46-3.63.74-2.4.59-3.58.94-2.36.73-3.52,1.14-2.31.87-3.45,1.35-2.26,1-3.36,1.54-2.2,1.12-3.28,1.73-2.13,1.25-3.16,1.92-2.06,1.37-3.06,2.09-2,1.49-2.92,2.27-1.89,1.59-2.8,2.43-1.79,1.7-2.65,2.58-1.69,1.8-2.49,2.74-1.59,1.89-2.34,2.87-1.47,2-2.17,3-1.36,2.06-2,3.11-1.24,2.14-1.81,3.23-1.12,2.2-1.63,3.33-1,2.26-1.43,3.41-.85,2.32-1.23,3.49-.72,2.36-1,3.56-.59,2.4-.83,3.61-.44,2.42-.61,3.65-.31,2.45-.41,3.68-.17,2.46-.2,3.69,0,2.47,0,3.7.11,2.47.22,3.7.26,2.45.44,3.67.4,2.44.65,3.65.53,2.41.85,3.6.68,2.37,1.06,3.55.81,2.33,1.26,3.48.94,2.28,1.46,3.4,1.07,2.22,1.65,3.31,1.2,2.16,1.84,3.21,1.32,2.09,2,3.11,1.43,2,2.19,3,1.55,1.92,2.36,2.85,1.66,1.83,2.52,2.71,1.76,1.74,2.67,2.57,1.85,1.63,2.81,2.4,1.95,1.53,2.95,2.24,2,1.41,3.07,2.07,2.1,1.29,3.18,1.9,2.18,1.16,3.29,1.7,2.23,1,3.38,1.51,2.29.91,3.45,1.32,2.35.78,3.53,1.12,2.39.64,3.59.91,2.42.51,3.63.71,2.44.37,3.67.5,2.46.23,3.69.29,2.47.08,3.7.07,2.47,0,3.7-.13,2.46-.2,3.69-.35,2.44-.34,3.66-.56,2.42-.48,3.62-.77,2.39-.61,3.57-1,2.35-.75,3.51-1.17,2.3-.89,3.44-1.38,2.25-1,3.35-1.57,2.19-1.14,3.26-1.76,2.12-1.26,3.15-1.94,2-1.38,3-2.12,2-1.49,2.91-2.29,1.87-1.6,2.77-2.45,1.78-1.71,2.63-2.6,1.68-1.82,2.48-2.76,1.57-1.9,2.31-2.89,1.46-2,2.14-3,1.35-2.08,2-3.14,1.22-2.14,1.79-3.24,1.09-2.21,1.59-3.34,1-2.27,1.41-3.43.83-2.32,1.2-3.5.7-2.36,1-3.56.57-2.4.8-3.62.42-2.43.59-3.65.28-2.45.37-3.68.15-2.47.17-3.7,0-2.47-.05-3.7-.13-2.47-.25-3.7-.28-2.45-.47-3.67-.42-2.43-.68-3.64-.55-2.4-.88-3.59-.69-2.37-1.09-3.54-.83-2.32-1.29-3.47-1-2.27-1.49-3.39-1.09-2.21-1.67-3.3-1.22-2.15-1.87-3.2-1.33-2.07-2-3.08-1.45-2-2.22-3-1.56-1.91-2.38-2.83-1.67-1.82-2.54-2.69q-2.25-2.25-4.7-4.27c-1.64-1.34-3.33-2.6-5.09-3.78s-3.58-2.26-5.44-3.26-3.78-1.91-5.74-2.72-3.95-1.52-6-2.13a62.3,62.3,0,0,0-6.16-1.54q-3.12-.62-6.28-.93C407,556.56,404.84,556.45,402.72,556.46Zm35.44,29.19c-.68-.67-1.37-1.33-2.09-2s-1.44-1.25-2.19-1.85-1.52-1.16-2.3-1.71-1.58-1.09-2.39-1.59-1.64-1-2.48-1.44-1.7-.9-2.56-1.31-1.74-.79-2.63-1.15-1.78-.69-2.69-1-1.82-.59-2.74-.84-1.86-.49-2.79-.69-1.88-.38-2.82-.53-1.9-.27-2.85-.36-1.91-.16-2.86-.2-1.92,0-2.88,0-1.91,0-2.86.12-1.91.17-2.86.3-1.89.28-2.83.45-1.88.39-2.81.62-1.85.49-2.76.78-1.82.59-2.71.93-1.78.7-2.66,1.09-1.74.8-2.59,1.24-1.69.9-2.51,1.38-1.64,1-2.44,1.53-1.57,1.08-2.34,1.66-1.51,1.17-2.24,1.79-1.44,1.26-2.13,1.92-1.37,1.34-2,2-1.29,1.41-1.91,2.15-1.2,1.49-1.77,2.26-1.12,1.55-1.64,2.35-1,1.61-1.51,2.44-.93,1.67-1.36,2.53-.84,1.72-1.22,2.6-.74,1.76-1.07,2.66-.63,1.81-.91,2.73-.53,1.84-.75,2.77-.42,1.86-.6,2.8S353.08,614,353,615s-.21,1.9-.27,2.86-.1,1.91-.1,2.87,0,1.91.05,2.87.12,1.91.23,2.86.23,1.9.38,2.84.34,1.89.55,2.82.45,1.86.71,2.78.55,1.84.87,2.74.65,1.8,1,2.68.76,1.76,1.17,2.62.86,1.71,1.33,2.55,1,1.66,1.46,2.47,1.05,1.6,1.61,2.38,1.13,1.54,1.73,2.28,1.23,1.47,1.87,2.18,1.3,1.4,2,2.07,1.38,1.33,2.1,2,1.46,1.24,2.21,1.83,1.53,1.15,2.31,1.7,1.59,1.06,2.41,1.56,1.65,1,2.49,1.43,1.7.88,2.57,1.28,1.75.78,2.64,1.13,1.79.68,2.7,1,1.82.57,2.75.82,1.85.47,2.79.66,1.88.36,2.83.5,1.89.26,2.85.34,1.91.15,2.86.18,1.92,0,2.87,0,1.92-.07,2.87-.15,1.9-.18,2.85-.32,1.89-.29,2.83-.48,1.87-.4,2.8-.64,1.85-.5,2.76-.8,1.81-.61,2.7-1,1.78-.72,2.65-1.11,1.73-.82,2.58-1.26,1.68-.91,2.5-1.41,1.63-1,2.42-1.54,1.57-1.1,2.33-1.68,1.5-1.19,2.23-1.81,1.43-1.27,2.12-1.94,1.35-1.35,2-2.06,1.28-1.42,1.88-2.16,1.2-1.5,1.76-2.27,1.11-1.56,1.62-2.37,1-1.62,1.49-2.45.92-1.68,1.34-2.54.82-1.73,1.2-2.61.72-1.77,1-2.67.62-1.82.89-2.73.51-1.85.73-2.78.41-1.87.57-2.81.3-1.89.41-2.84.19-1.91.25-2.86.08-1.92.08-2.87c0-1.64-.07-3.28-.23-4.92s-.4-3.25-.72-4.86a49.69,49.69,0,0,0-5-13.86,49.49,49.49,0,0,0-5.46-8.16C440.43,588,439.32,586.81,438.16,585.65Zm-29.07,4.41a7,7,0,0,0-1.16-1.6,7.17,7.17,0,0,0-3.38-2,6.79,6.79,0,0,0-2-.23,7.09,7.09,0,0,0-1.95.3,7.33,7.33,0,0,0-1.8.82,7.16,7.16,0,0,0-1.51,1.28,7.35,7.35,0,0,0-1.11,1.65l-6.92,14.14-16.89,3v0a6.94,6.94,0,0,0-1.89.6,7.26,7.26,0,0,0-1.65,1.09,7.42,7.42,0,0,0-1.29,1.51,6.94,6.94,0,0,0-.83,1.79,6.86,6.86,0,0,0-.32,1.95,7.22,7.22,0,0,0,.22,2,6.66,6.66,0,0,0,.75,1.83,7.39,7.39,0,0,0,1.21,1.57l11.34,11-2.36,17a7.23,7.23,0,0,0,.52,3.9,7,7,0,0,0,1,1.69,7.21,7.21,0,0,0,3.21,2.27,7.61,7.61,0,0,0,1.94.4,7.36,7.36,0,0,0,3.84-.82l14-7.39,15.05,7.31a7,7,0,0,0,.92.43,5.82,5.82,0,0,0,1,.3,6.85,6.85,0,0,0,1,.16,6.91,6.91,0,0,0,2-.11,6.78,6.78,0,0,0,1-.27,6.47,6.47,0,0,0,.94-.4,7.77,7.77,0,0,0,.87-.53,7,7,0,0,0,.79-.65,6.14,6.14,0,0,0,.69-.75,7.33,7.33,0,0,0,.58-.84,7.69,7.69,0,0,0,.45-.91,6.88,6.88,0,0,0,.32-1,6.78,6.78,0,0,0,.19-1,8.7,8.7,0,0,0,0-1,7.07,7.07,0,0,0-.11-1l-2.72-15.54,11.68-12.12a9.59,9.59,0,0,0,.68-.75,7.76,7.76,0,0,0,.57-.84,7,7,0,0,0,.45-.91,7.72,7.72,0,0,0,.32-1,8.58,8.58,0,0,0,.18-1,7,7,0,0,0,0-1,8.47,8.47,0,0,0-.1-1,6.52,6.52,0,0,0-.25-1,6.79,6.79,0,0,0-.37-.94,7.1,7.1,0,0,0-1.12-1.68,8,8,0,0,0-.73-.7,6.89,6.89,0,0,0-.82-.6,7.63,7.63,0,0,0-.89-.48c-.31-.13-.63-.25-.95-.35a8.73,8.73,0,0,0-1-.21l-15.64-2.22Zm-2.95,25.18L403,609.33l-2.06,4.22a7.89,7.89,0,0,1-.89,1.64,7.43,7.43,0,0,1-1.28,1.35,7.51,7.51,0,0,1-1.57,1,6.93,6.93,0,0,1-1.78.55l-6.54,1.16,3.63,3.52a6.86,6.86,0,0,1,1.14,1.33,7.35,7.35,0,0,1,1.19,3.27,7.32,7.32,0,0,1,0,1.75l-.92,6.61,4.69-2.48a7,7,0,0,1,1.57-.61,7.16,7.16,0,0,1,3.36-.06,7,7,0,0,1,1.59.55l6,2.92-.91-5.2h0a7.39,7.39,0,0,1-.1-1.69,7.24,7.24,0,0,1,.31-1.67,6.7,6.7,0,0,1,.68-1.55,7.14,7.14,0,0,1,1-1.35l4.63-4.81L411.5,619h0a7.77,7.77,0,0,1-1.64-.43,7.12,7.12,0,0,1-2.75-1.93,7.38,7.38,0,0,1-1-1.39Zm-16,124.38-2,1c-.55.26-1.11.51-1.67.74s-1.13.46-1.71.66-1.15.4-1.73.58-1.17.34-1.76.49-1.19.28-1.79.4-1.2.22-1.8.31-1.21.16-1.81.22-1.22.1-1.83.12-1.22,0-1.82,0-1.22,0-1.83,0-1.22-.08-1.82-.15-1.21-.14-1.82-.23-1.2-.21-1.79-.33-1.2-.26-1.79-.41-1.17-.33-1.75-.51-1.16-.38-1.73-.59-1.14-.44-1.7-.67-1.12-.5-1.66-.77-1.09-.54-1.63-.84-1.06-.6-1.57-.92-1-.65-1.54-1-1-.7-1.47-1.07-1-.76-1.43-1.15-.92-.8-1.36-1.22-.88-.84-1.3-1.28-.84-.89-1.24-1.35-.79-.93-1.17-1.41-.74-1-1.09-1.46-.7-1-1-1.52-.64-1-.95-1.56-.59-1.07-.86-1.61-.54-1.1-.79-1.65l-4.88-11a7,7,0,0,0-2.37-3.07v65.11h58.48Zm83.55-31.27a7.59,7.59,0,0,0-1.66,2.45l-5.38,11.8c-.26.55-.52,1.1-.8,1.64s-.58,1.08-.89,1.6-.62,1-.95,1.56-.68,1-1,1.51-.73,1-1.11,1.45-.78.94-1.18,1.39-.82.9-1.25,1.34-.87.86-1.32,1.27-.9.81-1.37,1.2-.95.77-1.44,1.14-1,.72-1.49,1.06-1,.67-1.54,1-1.05.62-1.58.91-1.08.56-1.63.82-1.11.51-1.67.75l-1.71.66c-.57.2-1.15.4-1.74.57s-1.17.34-1.76.49-1.18.28-1.78.4-1.2.22-1.8.3-1.21.16-1.82.22-1.21.1-1.82.13-1.22,0-1.83,0-1.22,0-1.83,0-1.21-.08-1.82-.15-1.21-.14-1.81-.24-1.2-.2-1.8-.32-1.19-.27-1.78-.42-1.18-.32-1.76-.51-1.16-.38-1.73-.59-1.13-.44-1.69-.67-1.12-.5-1.67-.77l-2-1V800h58.47ZM405.48,407.84H642.11a7.14,7.14,0,0,0,.8,0c.26,0,.53-.07.79-.12s.52-.12.77-.19a6.77,6.77,0,0,0,.75-.28,5.93,5.93,0,0,0,.72-.34,7,7,0,0,0,.69-.41c.22-.15.43-.3.64-.47s.4-.35.59-.54a7.43,7.43,0,0,0,.53-.59,7.62,7.62,0,0,0,.48-.64c.15-.22.28-.45.41-.68s.24-.48.34-.72.19-.5.27-.75.14-.52.2-.78.09-.52.12-.79,0-.53,0-.79V380c0-.27,0-.53,0-.8s-.07-.52-.12-.79-.12-.51-.2-.77-.17-.5-.27-.75-.22-.48-.34-.72-.26-.46-.41-.68a7.62,7.62,0,0,0-.48-.64,6,6,0,0,0-.53-.59c-.19-.19-.39-.37-.59-.54s-.42-.33-.64-.48-.45-.28-.69-.41a7.94,7.94,0,0,0-.72-.34c-.24-.1-.5-.19-.75-.27a6.66,6.66,0,0,0-.77-.19,5.39,5.39,0,0,0-.79-.12,7.14,7.14,0,0,0-.8,0H405.48a7.14,7.14,0,0,0-.8,0,5.39,5.39,0,0,0-.79.12,6.66,6.66,0,0,0-.77.19q-.39.12-.75.27a7.94,7.94,0,0,0-.72.34c-.24.13-.47.27-.69.41s-.43.31-.64.48-.4.35-.59.54a5,5,0,0,0-.53.59,7.62,7.62,0,0,0-.48.64c-.15.22-.28.45-.41.68a7.79,7.79,0,0,0-.34.72,7.51,7.51,0,0,0-.27.75,7.27,7.27,0,0,0-.2.77c-.05.27-.09.53-.12.79s0,.53,0,.8v19.67c0,.26,0,.53,0,.79s.07.53.12.79a8.48,8.48,0,0,0,.47,1.53,7.79,7.79,0,0,0,.34.72c.13.23.26.46.41.68a7.62,7.62,0,0,0,.48.64,5.88,5.88,0,0,0,.53.59c.19.19.39.37.59.54s.42.32.64.47a8.42,8.42,0,0,0,1.41.75,6.09,6.09,0,0,0,.75.28c.25.07.51.14.77.19s.53.09.79.12A7.14,7.14,0,0,0,405.48,407.84ZM648.85,427h36.62c.23,0,.47,0,.71,0s.47.06.7.1a7,7,0,0,1,.69.18,5.35,5.35,0,0,1,.67.24c.22.09.44.19.65.3s.41.24.61.37a6,6,0,0,1,.57.42c.18.15.36.31.53.48a7.05,7.05,0,0,1,.9,1.1c.13.2.25.4.37.61s.21.42.3.64.17.45.24.67a5.49,5.49,0,0,1,.17.7,5.37,5.37,0,0,1,.11.7c0,.24,0,.47,0,.71v59.55c0,.65,0,1.29-.05,1.94s-.08,1.29-.14,1.93-.15,1.29-.25,1.93-.2,1.28-.33,1.91-.27,1.27-.43,1.89-.33,1.26-.52,1.87-.39,1.24-.61,1.85-.46,1.21-.7,1.81-.52,1.19-.79,1.77-.57,1.16-.88,1.73-.62,1.14-.95,1.69-.68,1.1-1,1.64-.74,1.07-1.12,1.59-.79,1-1.2,1.53-.83,1-1.26,1.47-.89.94-1.34,1.4-.93.91-1.41,1.34-1,.86-1.47,1.27-1,.81-1.53,1.19-1.05.76-1.59,1.12-1.08.71-1.63,1-1.12.65-1.69,1-1.15.6-1.73.87-1.18.54-1.78.79-1.2.48-1.81.7-1.22.43-1.84.61-1.24.37-1.87.52-1.26.31-1.89.43-1.27.24-1.91.34-1.29.18-1.93.24-1.29.11-1.94.15-1.29.05-1.94.05h-5.63a123.69,123.69,0,0,0,1.28-14.52h4.35a22.21,22.21,0,0,0,2.45-.13,24.53,24.53,0,0,0,2.43-.36c.81-.17,1.6-.37,2.38-.61a23.71,23.71,0,0,0,2.32-.83c.75-.31,1.49-.67,2.21-1a23.59,23.59,0,0,0,2.11-1.27,23.32,23.32,0,0,0,2-1.46c.63-.52,1.24-1.07,1.82-1.65s1.13-1.19,1.65-1.82a23.32,23.32,0,0,0,1.46-2c.46-.68.88-1.39,1.27-2.11a26.42,26.42,0,0,0,1.89-4.53,24.37,24.37,0,0,0,.6-2.38c.16-.8.28-1.61.37-2.43s.12-1.63.13-2.45V441.47H648.85V427ZM398.74,441.47V427H362.12c-.24,0-.47,0-.71,0s-.47.06-.7.1a7,7,0,0,0-.69.18,5.49,5.49,0,0,0-.68.24c-.21.09-.43.19-.64.3s-.41.24-.61.37a7.11,7.11,0,0,0-2,2,5.51,5.51,0,0,0-.37.61c-.11.21-.21.42-.3.64a6,6,0,0,0-.24.67c-.07.23-.13.46-.18.7s-.08.46-.1.7,0,.47,0,.71v58.5a40.61,40.61,0,0,0,.68,7.38,40.2,40.2,0,0,0,2,7.13,40.34,40.34,0,0,0,7.72,12.57,8,8,0,0,0,2.12-1.59l8.34-8.49a25.74,25.74,0,0,1-5.93-12.39,25.42,25.42,0,0,1-.42-4.61V441.47Zm235.59-19.11H413.26v77.17A36.11,36.11,0,0,1,429,509.21l8.35,8.66a6.67,6.67,0,0,0,1.29,1.14,7.08,7.08,0,0,0,1.52.79,7.29,7.29,0,0,0,1.66.39,7.06,7.06,0,0,0,1.72,0l12.91-1.24c.6-.06,1.21-.1,1.82-.13s1.22,0,1.83,0,1.22,0,1.83.06,1.21.08,1.82.14,1.21.14,1.81.24,1.2.2,1.8.32,1.19.26,1.78.41,1.18.33,1.76.51,1.16.38,1.73.59,1.14.43,1.7.67,1.11.49,1.66.76,1.09.55,1.62.84,1.06.6,1.58.93,1,.65,1.53,1,1,.71,1.48,1.08,1,.75,1.43,1.14.92.81,1.36,1.22.88.85,1.3,1.28.84.89,1.24,1.35.79.93,1.17,1.41.74,1,1.09,1.46.7,1,1,1.52.64,1,.94,1.56.59,1.07.87,1.61.53,1.1.78,1.65.48,1.12.7,1.69.43,1.14.62,1.72.36,1.17.52,1.75.31,1.18.45,1.78.25,1.19.35,1.79.19,1.21.26,1.81.13,1.21.17,1.82l.83,12a7,7,0,0,0,.25,1.7,7.54,7.54,0,0,0,.66,1.58,6.92,6.92,0,0,0,1,1.37,6.5,6.5,0,0,0,1.32,1.08l10.69,7.35c.87.6,1.72,1.23,2.53,1.91s1.6,1.38,2.35,2.12,1.48,1.51,2.17,2.31,1.34,1.63,2,2.49,1.2,1.74,1.74,2.65,1,1.84,1.49,2.79.88,1.92,1.26,2.91.71,2,1,3,.54,2,.74,3.08.35,2.08.47,3.13.17,2.1.19,3.16,0,2.11-.08,3.17-.19,2.1-.35,3.14-.37,2.08-.62,3.11-.55,2-.89,3-.72,2-1.14,2.95h2.79c1.76,0,3.52,0,5.27-.14s3.51-.23,5.26-.4,3.5-.4,5.23-.66,3.47-.57,5.2-.92,3.44-.73,5.14-1.16,3.4-.9,5.08-1.42,3.35-1.07,5-1.66,3.29-1.23,4.91-1.91,3.23-1.39,4.82-2.14,3.16-1.55,4.71-2.38,3.08-1.7,4.59-2.6,3-1.85,4.45-2.83,2.9-2,4.31-3,2.8-2.13,4.15-3.24,2.69-2.27,4-3.45,2.57-2.39,3.82-3.63,2.45-2.52,3.63-3.82,2.33-2.64,3.45-4,2.2-2.75,3.24-4.16,2.07-2.85,3-4.31,1.92-2.95,2.83-4.45,1.77-3,2.6-4.59,1.63-3.12,2.38-4.71,1.47-3.19,2.14-4.82,1.31-3.26,1.91-4.91,1.15-3.33,1.66-5,1-3.37,1.42-5.08.82-3.42,1.16-5.14.66-3.46.92-5.2.48-3.48.66-5.23.31-3.5.4-5.26.14-3.51.14-5.27ZM530.17,453.75a7,7,0,0,0-1.16-1.6,7.36,7.36,0,0,0-1.55-1.23,7.53,7.53,0,0,0-1.83-.76,7.38,7.38,0,0,0-3.92.07,7.33,7.33,0,0,0-1.8.83A7.36,7.36,0,0,0,517.3,454l-10.19,20.8-24.72,4.4h0a7.43,7.43,0,0,0-3.54,1.7,7.11,7.11,0,0,0-1.29,1.5,7.39,7.39,0,0,0-.84,1.8,7.65,7.65,0,0,0-.32,2,7.15,7.15,0,0,0,1,3.8,7.13,7.13,0,0,0,1.22,1.56l16.67,16.15-3.45,24.84a7,7,0,0,0,0,2,7.29,7.29,0,0,0,1.55,3.6,7.48,7.48,0,0,0,1.45,1.36,7.8,7.8,0,0,0,1.77.91,7,7,0,0,0,1.94.39,7,7,0,0,0,2-.14,7.26,7.26,0,0,0,1.86-.67l20.51-10.87,22.21,10.79a7.28,7.28,0,0,0,1.9.73,6.85,6.85,0,0,0,1,.16,8,8,0,0,0,2-.11,8.36,8.36,0,0,0,1-.27,7.8,7.8,0,0,0,.94-.4,9.61,9.61,0,0,0,.87-.53,8.27,8.27,0,0,0,.79-.65,7,7,0,0,0,.69-.75,9.64,9.64,0,0,0,.58-.84,7.83,7.83,0,0,0,.45-.92,6.36,6.36,0,0,0,.32-1,5.78,5.78,0,0,0,.18-1,6.77,6.77,0,0,0,.05-1,8.6,8.6,0,0,0-.11-1l-4-22.86L569,491.57a9.59,9.59,0,0,0,.68-.75,7.76,7.76,0,0,0,.57-.84,7,7,0,0,0,.45-.91,7.72,7.72,0,0,0,.32-1,8.58,8.58,0,0,0,.18-1,8.7,8.7,0,0,0,0-1,8.47,8.47,0,0,0-.1-1,7.94,7.94,0,0,0-.24-1,8.4,8.4,0,0,0-.38-.94,8.71,8.71,0,0,0-.51-.88,6.6,6.6,0,0,0-.62-.8,6.81,6.81,0,0,0-.72-.7,6.89,6.89,0,0,0-.82-.6,7.63,7.63,0,0,0-.89-.48,8.34,8.34,0,0,0-.95-.35,8.73,8.73,0,0,0-1-.21l-23-3.27-11.81-22.13ZM531,486,524.07,473l-5.33,10.89a7.34,7.34,0,0,1-.89,1.63,7.17,7.17,0,0,1-1.28,1.36,7.51,7.51,0,0,1-1.57,1,7.35,7.35,0,0,1-1.78.55L498.85,491l9,8.68A7.63,7.63,0,0,1,509,501a7.18,7.18,0,0,1,1.18,3.27,7.33,7.33,0,0,1,0,1.75l-2,14.48,11.25-6a7.35,7.35,0,0,1,1.58-.6,7.15,7.15,0,0,1,1.67-.23,7.37,7.37,0,0,1,1.68.17,7,7,0,0,1,1.59.55L539,520.82l-2.19-12.51h0a7.47,7.47,0,0,1-.1-1.7,7.91,7.91,0,0,1,.3-1.67,7.41,7.41,0,0,1,.69-1.55,6.66,6.66,0,0,1,1-1.35l10.14-10.53-12.59-1.79v0a7,7,0,0,1-1.63-.43,7.21,7.21,0,0,1-1.5-.8,7.49,7.49,0,0,1-1.26-1.13,7.07,7.07,0,0,1-1-1.39ZM488.25,713.52V800H626.38V713.52ZM603,699V672.88H516.36a36.94,36.94,0,0,1-.75,3.91,39,39,0,0,1-1.17,3.81,38.18,38.18,0,0,1-1.57,3.67,33.81,33.81,0,0,1-1.95,3.47,38.88,38.88,0,0,1-2.3,3.25,37.36,37.36,0,0,1-2.65,3,37.37,37.37,0,0,1-6.16,5ZM548.87,635.4a121,121,0,0,1-22.07,2H514.42l-1.43,2a7.5,7.5,0,0,0-.89,1.46,6.65,6.65,0,0,0-.51,1.64,7.49,7.49,0,0,0-.1,1.71,6.94,6.94,0,0,0,.33,1.68l3.46,12.49h33.59v-23ZM383.05,264.21l14.38,26.94,28.23,4-21.18,22,4.9,28.08L381.92,331.9l-25.19,13.34,4.2-30.24-20.47-19.84,30.06-5.34,12.54-25.61Zm281.48,0,14.38,26.94,28.23,4-21.18,22,4.9,28.08L663.41,331.9l-25.2,13.34,4.2-30.24-20.47-19.84L652,289.82Z"/></g></svg>