<svg id="Layer_1" data-name="Layer 1" xmlns="http://www.w3.org/2000/svg" xmlns:xlink="http://www.w3.org/1999/xlink" viewBox="0 0 1000 1000"><defs><style>.cls-1{fill:none;}.cls-2{fill:#fff;}.cls-3{clip-path:url(#clip-path);}.cls-4{clip-path:url(#clip-path-2);}</style><clipPath id="clip-path"><rect id="SVGID" class="cls-1" x="578.09" y="278.85" width="209.2" height="222.85"/></clipPath><clipPath id="clip-path-2"><rect id="SVGID-2" data-name="SVGID" class="cls-1" x="187.29" y="666.9" width="580.4" height="30.45"/></clipPath></defs><title>05_principal_treinamento</title><g id="_5" data-name="5"><path class="cls-2" d="M518.81,440.73c.68.67,1.33,1.36,2,2.07s1.26,1.43,1.87,2.17,1.19,1.49,1.76,2.26,1.11,1.54,1.64,2.34,1.05,1.6,1.54,2.41,1,1.65,1.41,2.49.88,1.7,1.28,2.56.8,1.74,1.16,2.62.71,1.77,1,2.67.63,1.8.9,2.72.53,1.83.77,2.76.44,1.85.62,2.79.35,1.88.49,2.82.26,1.89.35,2.84.17,1.9.21,2.85.07,1.91.07,2.87,0,1.91-.07,2.86-.11,1.9-.21,2.85-.21,1.9-.35,2.84-.3,1.89-.49,2.83-.39,1.86-.62,2.79-.49,1.84-.77,2.76-.57,1.82-.89,2.71-.67,1.79-1,2.68-.75,1.75-1.16,2.61-.83,1.72-1.28,2.56-.92,1.67-1.41,2.49-1,1.63-1.54,2.42-1.07,1.57-1.64,2.34-1.16,1.52-1.76,2.26-1.23,1.46-1.87,2.16-1.3,1.4-2,2.08-1.36,1.33-2.07,2-1.43,1.26-2.17,1.87-1.49,1.19-2.26,1.76-1.54,1.12-2.34,1.65-1.59,1-2.41,1.53-1.65,1-2.49,1.41-1.7.88-2.56,1.29-1.74.79-2.62,1.16-1.77.71-2.67,1-1.8.62-2.72.9-1.83.53-2.76.76-1.85.44-2.79.63-1.88.35-2.82.49-1.89.25-2.84.35-1.9.16-2.85.21-1.91.07-2.87.07-1.91,0-2.86-.07-1.9-.12-2.85-.21-1.9-.21-2.84-.35-1.89-.31-2.82-.49-1.87-.4-2.8-.63-1.84-.49-2.76-.76-1.82-.58-2.71-.9-1.79-.66-2.68-1-1.75-.75-2.61-1.16-1.72-.84-2.56-1.29-1.67-.92-2.49-1.41-1.63-1-2.42-1.53-1.57-1.08-2.34-1.65-1.52-1.15-2.26-1.76-1.46-1.23-2.16-1.87-1.4-1.3-2.08-2-1.33-1.37-2-2.08-1.26-1.43-1.87-2.16-1.19-1.49-1.76-2.26-1.12-1.55-1.65-2.34-1-1.6-1.53-2.42-1-1.65-1.41-2.49-.88-1.69-1.29-2.56-.79-1.73-1.16-2.61-.71-1.77-1-2.67-.62-1.81-.9-2.72-.53-1.83-.76-2.76-.44-1.86-.63-2.79-.35-1.88-.49-2.82-.25-1.9-.35-2.85-.16-1.9-.21-2.85-.07-1.91-.07-2.86,0-1.91.07-2.86.12-1.91.21-2.86.21-1.9.35-2.84.31-1.88.49-2.82.4-1.87.63-2.79.49-1.85.76-2.76.58-1.82.9-2.72.66-1.79,1-2.67.75-1.75,1.16-2.62.84-1.71,1.29-2.55.92-1.68,1.41-2.49,1-1.63,1.53-2.42,1.08-1.58,1.65-2.34,1.15-1.52,1.76-2.26,1.23-1.46,1.87-2.17,1.3-1.4,2-2.07,1.37-1.33,2.08-2,1.43-1.26,2.16-1.87,1.49-1.19,2.26-1.76,1.55-1.11,2.34-1.64,1.6-1.05,2.42-1.54,1.65-1,2.49-1.41,1.69-.88,2.56-1.28,1.73-.8,2.61-1.16,1.77-.71,2.67-1,1.81-.63,2.72-.9,1.83-.53,2.76-.77,1.86-.44,2.79-.62,1.88-.35,2.82-.49,1.9-.26,2.85-.35,1.9-.17,2.85-.21,1.91-.07,2.86-.07,1.91,0,2.86.07,1.91.11,2.86.21,1.9.21,2.84.35,1.88.3,2.82.49,1.87.39,2.79.62,1.85.49,2.76.77,1.82.57,2.72.89,1.79.67,2.67,1,1.75.75,2.62,1.16,1.71.83,2.55,1.28,1.68.92,2.49,1.41,1.63,1,2.42,1.54,1.58,1.07,2.34,1.64,1.52,1.16,2.26,1.76,1.46,1.23,2.17,1.87S518.14,440.05,518.81,440.73Z"/><path class="cls-2" d="M694.41,502.75c-3.84.37-7.7.56-11.61.56-1.22,0-2.43,0-3.64-.07v137.6H578.91V615.19a62.34,62.34,0,0,0-62.34-62.33H438.81a62.34,62.34,0,0,0-62.34,62.33v25.65H277.75V407.34a15.55,15.55,0,0,1,15.53-15.54h269.8c-.2-2.84-.31-5.68-.31-8.55,0-2.24.07-4.47.19-6.7H293.26a30.79,30.79,0,0,0-30.78,30.79V656.09H694.41Z"/><g class="cls-3"><path class="cls-2" d="M578.91,501.41l61.33-22.78a104.42,104.42,0,1,0-43.83-36.72ZM739.17,370A17.15,17.15,0,1,1,722,387.18,17.15,17.15,0,0,1,739.17,370Zm-56.37,0a17.15,17.15,0,1,1-17.15,17.15A17.15,17.15,0,0,1,682.8,370Zm-56.35,0a17.15,17.15,0,1,1-17.15,17.15A17.15,17.15,0,0,1,626.45,370Z"/></g><g class="cls-4"><path class="cls-2" d="M579.6,677.31h-207A10.26,10.26,0,0,1,362.3,667h-175a30.3,30.3,0,0,0,30.31,30.31H737.38A30.31,30.31,0,0,0,767.69,667H589.85A10.27,10.27,0,0,1,579.6,677.31Z"/></g></g></svg>