<svg id="Layer_1" data-name="Layer 1" xmlns="http://www.w3.org/2000/svg" viewBox="0 0 1000 1000"><defs><style>.cls-1{fill:#fff;}</style></defs><title>06_principal_sistemas</title><g id="_6" data-name="6"><path class="cls-1" d="M737.9,311.41H665.26a22.34,22.34,0,0,1,1.06,28.95l-.53,1.05H720V595.1H280V341.41h97.37l-3.69-10a22.56,22.56,0,0,1,3.16-20H262.1A11.91,11.91,0,0,0,250,323.52V646.15a11.91,11.91,0,0,0,12.1,12.11H737.9A11.91,11.91,0,0,0,750,646.15V323.52A11.91,11.91,0,0,0,737.9,311.41ZM500,641.94a15.27,15.27,0,1,1,15.26-15.26A15.62,15.62,0,0,1,500,641.94Z"/><path class="cls-1" d="M603.68,731.94v11.58a4.72,4.72,0,0,1-4.73,4.74H401.05a4.72,4.72,0,0,1-4.73-4.74V731.94a4.72,4.72,0,0,1,4.73-4.74h35.27l9.47-53.15h109l9.47,53.15h35.26A4.64,4.64,0,0,1,603.68,731.94Z"/><path class="cls-1" d="M665.79,362.47l-12.63-1.58a13.94,13.94,0,0,1-11-8.42,15.71,15.71,0,0,1,1.57-13.69l7.9-10a4,4,0,0,0-.53-5.26L637.9,310.36a4,4,0,0,0-5.27-.52l-10,7.89c-3.68,3.16-9,3.68-13.68,1.58a12.49,12.49,0,0,1-8.42-10.53l-.53-12.1a4,4,0,0,0-3.68-3.69h-19a3.6,3.6,0,0,0-3.69,3.69l-1.57,12.63a12.51,12.51,0,0,1-8.43,10.53A13,13,0,0,1,550,318.26l-10-7.9a4,4,0,0,0-5.26.53l-13.16,13.16a4,4,0,0,0-.53,5.26l7.9,10A12.84,12.84,0,0,1,530.53,353c-2.11,4.74-5.79,7.9-11.06,8.42L506.84,363a4,4,0,0,0-3.68,3.69v18.95a3.6,3.6,0,0,0,3.68,3.68l12.63,1.58a13.93,13.93,0,0,1,11.06,8.42c2.1,4.74,1.05,9.47-1.58,13.68l-7.9,9.48a4,4,0,0,0,.53,5.26l13.16,13.16a4,4,0,0,0,5.26.52l10-7.89a12.8,12.8,0,0,1,13.68-1.58A12.56,12.56,0,0,1,572.1,443l1.58,12.63a4,4,0,0,0,3.69,3.69h19a3.6,3.6,0,0,0,3.68-3.69L601.58,443A14,14,0,0,1,610,431.94a12.93,12.93,0,0,1,13.68,1.58l10,7.89a4,4,0,0,0,5.27-.52l13.16-13.16a4.06,4.06,0,0,0,.52-5.26l-7.89-10a12.82,12.82,0,0,1-1.58-13.69c2.1-4.73,5.79-7.89,11.05-8.42l12.63-1.58c2.11-.52,3.69-2.1,3.69-3.68v-19C669.47,364.05,667.89,362.47,665.79,362.47Zm-79.47,49.47a36.32,36.32,0,1,1,36.31-36.32A36.4,36.4,0,0,1,586.32,411.94Z"/><path class="cls-1" d="M586.32,354.05a21.58,21.58,0,1,0,21.57,21.57A21.34,21.34,0,0,0,586.32,354.05Z"/><path class="cls-1" d="M523.16,450.89l-12.63-1.58a14,14,0,0,1-11.06-8.42,15.72,15.72,0,0,1,1.58-13.69l7.9-10a4,4,0,0,0-.53-5.26l-13.16-13.16a4,4,0,0,0-5.26-.52l-10,7.89a12.8,12.8,0,0,1-13.68,1.58,12.51,12.51,0,0,1-8.43-10.53l-1.57-12.63a4,4,0,0,0-3.69-3.68H433.68a3.6,3.6,0,0,0-3.68,3.68l-1.58,12.63A12.5,12.5,0,0,1,420,407.73a12.93,12.93,0,0,1-13.68-1.58l-10-7.89a4,4,0,0,0-5.27.52L379,412.47a4,4,0,0,0-.53,5.26l7.9,10a12.82,12.82,0,0,1,1.57,13.68c-2.1,4.74-5.78,7.9-11.05,8.42l-12.63,1.58a4,4,0,0,0-3.68,3.69v18.95a3.59,3.59,0,0,0,3.68,3.68l12.63,1.58a13.92,13.92,0,0,1,11.05,8.42c2.11,4.74,1.06,9.47-1.57,13.68L379,510.89a4,4,0,0,0,.52,5.26l13.16,13.16a4,4,0,0,0,5.26.53l10-7.9c3.69-3.16,8.95-3.68,13.69-1.58a12.57,12.57,0,0,1,8.42,11l1.58,12.64a4,4,0,0,0,3.68,3.68h18.95a3.59,3.59,0,0,0,3.68-3.68l1.58-12.64a14,14,0,0,1,8.43-11,13,13,0,0,1,13.68,1.58l10,7.9a4,4,0,0,0,5.26-.53L510,516.15a4,4,0,0,0,.53-5.26l-7.9-10c-3.16-3.69-3.68-8.95-1.58-13.69s5.79-7.89,11.05-8.42l12.64-1.58c2.1-.52,3.68-2.1,3.68-3.68V454.57C526.84,452.47,525.26,450.89,523.16,450.89Zm-78.95,49.47a36.32,36.32,0,1,1,36.32-36.31C480,484.05,464.21,500.36,444.21,500.36Z"/><path class="cls-1" d="M444.21,442.47a21.58,21.58,0,1,0,21.58,21.58A21.34,21.34,0,0,0,444.21,442.47Z"/><path class="cls-1" d="M507.37,328.78l-7.9-5.26a8.91,8.91,0,0,1-4.21-8.95,9,9,0,0,1,5.79-8.42l8.42-4.21a3.2,3.2,0,0,0,1.58-3.68l-4.73-13.16c-1.06-.53-2.64-1.58-3.69-1.05l-8.95,2.1c-3.68,1.05-6.84-.53-9.47-3.16s-3.16-6.31-2.1-10l3.15-8.94a2.72,2.72,0,0,0-1.58-3.69l-12.63-6.31c-1.05-.53-2.63,0-3.68,1L462.11,263a8.89,8.89,0,0,1-8.95,4.21,9.36,9.36,0,0,1-8.42-5.26l-4.21-8.42a2.72,2.72,0,0,0-3.69-1.58l-13.16,4.74a3.27,3.27,0,0,0-2.1,3.15l2.1,8.95a10.61,10.61,0,0,1-3.15,9.48c-2.64,2.63-6.32,3.15-10,2.1l-8.95-3.16c-1.58-.52-2.63,0-3.69,1.58l-5.78,12.11a3.24,3.24,0,0,0,1.05,3.68l7.89,5.26a8.89,8.89,0,0,1,4.21,8.95A9.36,9.36,0,0,1,400,317.2l-8.42,4.21A2.72,2.72,0,0,0,390,325.1l4.21,13.16a3.27,3.27,0,0,0,3.16,2.1l9.47-2.1c3.69-1.06,6.84.52,9.48,3.15s3.15,6.32,2.1,10l-3.16,8.95a2.73,2.73,0,0,0,1.58,3.69l12.63,6.31a3.26,3.26,0,0,0,3.69-1.05l5.26-7.9a8.91,8.91,0,0,1,8.95-4.21,9.38,9.38,0,0,1,8.42,5.27l4.21,8.42a2.72,2.72,0,0,0,3.68,1.58l13.16-4.74a3.28,3.28,0,0,0,2.11-3.16l-2.11-8.95c-1-3.68.53-6.84,3.16-9.47s6.32-3.16,10-2.1L499,347.2c1.58.53,2.63,0,3.68-1.58l5.79-12.1A4.73,4.73,0,0,0,507.37,328.78ZM439,336.15a26.36,26.36,0,1,1,35.26-12.1A26.77,26.77,0,0,1,439,336.15Z"/><path class="cls-1" d="M457.89,297.73a15.77,15.77,0,1,0,7.37,21C469,311.41,465.79,301.94,457.89,297.73Z"/></g></svg>