<svg id="Layer_1" data-name="Layer 1" xmlns="http://www.w3.org/2000/svg" viewBox="0 0 1000 1000"><defs><style>.cls-1{fill:#fff;}</style></defs><title>07_principal_central</title><g id="_7" data-name="7"><path class="cls-1" d="M621.21,467.54a10.45,10.45,0,0,1-9.2-5.81c-.81-1.59-1.68-3.17-2.61-4.77s-1.83-3.09-2.78-4.57a10.46,10.46,0,0,1-.46-10.9,32.4,32.4,0,0,0-11.86-44.27l-28.22-16.29a32.45,32.45,0,0,0-44.29,11.86l0,.1a10,10,0,0,1-9.27,5c-3.81-.18-7.68-.19-11.49,0a10.09,10.09,0,0,1-9.28-5.06,32.43,32.43,0,0,0-44.29-11.86l-28.22,16.29a32.4,32.4,0,0,0-11.86,44.27,10.09,10.09,0,0,1-.26,10.56c-2.08,3.23-4,6.58-5.75,9.95a10.13,10.13,0,0,1-9,5.54A32.45,32.45,0,0,0,359.86,500v32.57a32.45,32.45,0,0,0,32.42,32.41,10.45,10.45,0,0,1,9.21,5.85q1.23,2.37,2.59,4.73c.91,1.56,1.83,3.1,2.79,4.58a10.44,10.44,0,0,1,.45,10.9,32.46,32.46,0,0,0,11.87,44.28l28.22,16.29a32.45,32.45,0,0,0,44.28-11.87l.06-.1a10,10,0,0,1,9.26-5c3.85.17,7.72.17,11.5,0a9.85,9.85,0,0,1,9.28,5.06,32.48,32.48,0,0,0,44.29,11.86l28.21-16.29A32.41,32.41,0,0,0,606.15,591a10.13,10.13,0,0,1,.26-10.56,114.35,114.35,0,0,0,5.75-10,10.16,10.16,0,0,1,9.05-5.54,32.46,32.46,0,0,0,32.42-32.41V500A32.45,32.45,0,0,0,621.21,467.54Zm-53.79,64.95a62.9,62.9,0,0,1-60.57,46.56,63,63,0,0,1-16.35-2.17,62.78,62.78,0,1,1,76.92-44.39Z"/><path class="cls-1" d="M534.71,281.76l14.21-12.23a11.11,11.11,0,1,0-14.5-16.84l-34.92,30c-.11.09-.18.2-.28.29a10.07,10.07,0,0,0-.78.82c-.23.26-.45.51-.66.79s-.41.63-.6.95-.34.59-.49.9-.28.69-.4,1a9.74,9.74,0,0,0-.31,1,9.4,9.4,0,0,0-.19,1.06,6,6,0,0,0-.13.72c0,.14,0,.29,0,.43s0,.27,0,.4.05.43.07.65a10.92,10.92,0,0,0,.11,1.15c.07.37.15.72.24,1.08s.19.67.31,1,.3.7.46,1,.32.61.49.9.42.62.65.92.23.36.37.52l30.05,34.91a11.11,11.11,0,0,0,16.85-14.5l-12.88-15C637.67,316.53,719.57,406.37,719.57,515a214.76,214.76,0,0,1-3.22,37.12,11.1,11.1,0,0,0,9,12.86,10.67,10.67,0,0,0,1.94.17A11.11,11.11,0,0,0,738.24,556a236.36,236.36,0,0,0,3.57-41C741.79,394.91,651.17,295.63,534.71,281.76Z"/><path class="cls-1" d="M331.68,573a11.15,11.15,0,0,0-14.16,6.82L311,598.46A212.76,212.76,0,0,1,433.94,315a11.11,11.11,0,1,0-7.6-20.87C333.85,327.82,271.71,416.57,271.71,515a235.33,235.33,0,0,0,19,92.48L273,601.29a11.11,11.11,0,0,0-7.34,21l43.48,15.21h0a10.59,10.59,0,0,0,9.3-.77,11,11,0,0,0,5.24-7.21l14.81-42.32A11.12,11.12,0,0,0,331.68,573Z"/><path class="cls-1" d="M711.81,625a11.12,11.12,0,0,0-13-8.86l-45.27,8.56a11.11,11.11,0,1,0,4.14,21.83l19.07-3.6a212.76,212.76,0,0,1-306.68,35.22,11.11,11.11,0,1,0-14.29,17A235,235,0,0,0,695,655.59l3.54,18.75a11.13,11.13,0,0,0,10.91,9,10.44,10.44,0,0,0,2.07-.2,11.1,11.1,0,0,0,8.86-13Z"/></g></svg>