<svg id="Layer_1" data-name="Layer 1" xmlns="http://www.w3.org/2000/svg" viewBox="0 0 1000 1000"><defs><style>.cls-1{fill:#fff;fill-rule:evenodd;}</style></defs><title>08_principal_marketplace</title><path id="_8" data-name="8" class="cls-1" d="M447.31,392.68A62.44,62.44,0,1,1,500,421.62,62.34,62.34,0,0,1,447.31,392.68Zm55.4-39.26a6.41,6.41,0,1,1,0-12.82h19a6.42,6.42,0,0,1,6.41,6.41v19a6.41,6.41,0,1,1-12.82,0v-3.54l-19.39,19.38a6.41,6.41,0,0,1-9.06,0l-8.93-8.93L461,389.86a49.54,49.54,0,1,0-6.73-11.4l19.14-19.12a6.41,6.41,0,0,1,9.06,0l8.93,8.92,14.86-14.85h-3.55Zm-95.64,286.2c4.74-5.1,5.44-10.13,3.38-15-3.58-8.38-14.8-13.9-23.51-5.19l-37,37c-13.32,13.32,6.83,33.45,20.15,20.14Zm-1.56,60c-13.32,13.32-33.46-6.83-20.14-20.13l47.29-47.29c13.32-13.32,33.46,6.83,20.15,20.15Zm50.76,25.78c-13.31,13.79,6.93,33.35,20.14,20.15l26.09-26.09c13.25-13.24-7.32-32.95-20.13-20.15Zm17-35.13-38.56,38.55c-13.32,13.32-33.46-6.82-20.15-20.14l47.3-47.29C475.19,648,495.33,668.18,482,681.5Zm52.39-238.34v-5.83h0a6.4,6.4,0,0,1,4.2-6c8.17-3,18.51-8.67,24.92-14.32a6.41,6.41,0,0,1,7.6-.88l16.63,9.6A109.08,109.08,0,0,0,604.73,390l-16.48-9.51a6.4,6.4,0,0,1-3.3-6.69,87.32,87.32,0,0,0,0-29.21,6.37,6.37,0,0,1,3.11-6.58l16.67-9.62A109,109,0,0,0,579,284l-16.63,9.6h0a6.37,6.37,0,0,1-7.29-.62c-6.71-5.58-16.6-11.63-24.91-14.45a6.41,6.41,0,0,1-4.53-6.13V253.13a110.66,110.66,0,0,0-51.31,0v19.22h0a6.41,6.41,0,0,1-4.2,6c-8.18,3-18.52,8.67-24.94,14.33a6.37,6.37,0,0,1-7.58.87L421,284A109,109,0,0,0,395.3,328.4l16.47,9.51a6.4,6.4,0,0,1,3.31,6.7,87.59,87.59,0,0,0,0,29.21h0A6.37,6.37,0,0,1,412,380.4L395.3,390A109,109,0,0,0,421,434.45l16.64-9.6h0a6.39,6.39,0,0,1,7.28.62c6.71,5.58,16.61,11.63,24.92,14.45a6.42,6.42,0,0,1,4.53,6.13v19.23A111.51,111.51,0,0,0,491.27,468l16.31-16.31h0a6.36,6.36,0,0,1,5.53-1.79Zm189.72,15H690c-10.13,0-19.22,2.38-25.71,6.22-5.5,3.25-8.9,7.38-8.9,11.62V615.23c0,4.24,3.4,8.38,8.9,11.62,6.49,3.84,15.58,6.22,25.71,6.22h25.4c10.12,0,19.22-2.38,25.71-6.22,5.49-3.24,8.9-7.38,8.9-11.62V484.76c0-4.24-3.41-8.37-8.9-11.62C734.62,469.3,725.51,466.92,715.39,466.92ZM398.54,493.75a8.45,8.45,0,0,0-.46.82l-65,112.5c-2.11,3.67-7.13,5.54-13.51,5.61-7.56.08-16.65-2.4-25.41-7.45v0l-22-12.69c-8.63-4.88-15.54-11.84-19.15-18.25-3.14-5.57-4-10.87-1.92-14.54l65.24-113h0c2.13-3.69,7.15-5.57,13.52-5.63,7.55-.08,16.63,2.4,25.39,7.46,13.49,7.78,33.21,16.87,41.14,31C399.66,485.22,400.32,489.65,398.54,493.75ZM628.53,644a46.81,46.81,0,1,0,0,66.19A46.81,46.81,0,0,0,628.53,644Zm-33.1-26.52A59.62,59.62,0,0,0,556.12,722l-8.34,8.33c-11,11-29.36,11.68-42.84,4.79l6.62-6.61c17.25-17.25,4.55-41.73-14.79-45.74,9.07-18.41-7.37-39.77-26.7-38.66,1.26-22-26.81-40.66-46.61-20.86-5.06-18.51-28.86-29.54-45.59-12.81l-13.73,13.72L346.19,610l61.32-106.19,37.81,10.12-1.56,1.57c-11.84,11.83-15.29,23.28-13.43,33,4.69,24.68,41.76,34.81,64.24,18.69L524,546.11ZM604,663.87a6.41,6.41,0,0,1,9.06,9.06L595.57,690.4a6.41,6.41,0,0,1-9.06,0l-8.74-8.73a6.41,6.41,0,1,1,9.06-9.06l4.21,4.21Zm25.06-36,14.21-7.27a21.08,21.08,0,0,1-.69-5.39V484.76c0-.38,0-.74,0-1.11L514.36,463l-61.52,61.5c-10.45,10.45-13.76,21.19-5.59,29.55,9.36,9.58,28.14,11.13,39.87,2.72l33.68-24.15a6.44,6.44,0,0,1,8.43.55L618,621.92A61,61,0,0,1,629.05,627.89Z"/></svg>