<svg id="Layer_1" data-name="Layer 1" xmlns="http://www.w3.org/2000/svg" viewBox="0 0 1000 1000"><defs><style>.cls-1{fill:#fff;}</style></defs><title>09_principal_consultoria_s</title><g id="_9" data-name="9"><path class="cls-1" d="M613.46,440c-2.25-.9-17.74-7-20-7.77l-3.16-1.11a167.13,167.13,0,0,0-13.77-11,112.88,112.88,0,0,1-4,21.66A115.41,115.41,0,0,1,551.59,482a75.25,75.25,0,0,0-12,21.14,64.15,64.15,0,0,0-4,22.13v23.9a74.68,74.68,0,0,1-149.36,0v-23.9a64.18,64.18,0,0,0-4-22.13,74.43,74.43,0,0,0-12-21.14,114.38,114.38,0,0,1-24.93-62c-37.31,26.63-60.91,65.92-60.91,109.74,0,40.61,20.17,77.22,52.82,103.55v53.46c0,18.65,7.87,21.1,18.81,17.24L411,680.85c35.54,35.3,87.59,42.77,125.14,42.77a217.15,217.15,0,0,0,28.69-1.91l62.72,26.38A34.13,34.13,0,0,0,638.76,750a26.39,26.39,0,0,0,15.37-4.57c4.58-3.24,10-9.63,10-21.7V679c33.18-28,51.41-64.9,51.41-104.41C715.57,517.41,675.49,464.59,613.46,440Zm38,229.21a7.79,7.79,0,0,0-2.91,6.08v48.46c0,4.33-1.16,7.33-3.44,8.94-2.84,2-7.81,2.29-12,.85l-64.26-27a7.78,7.78,0,0,0-4.13-.53,202.1,202.1,0,0,1-28.64,2c-32.91,0-77.73-6-109.37-33.78l3.53-1.48a214.21,214.21,0,0,0,30.58,2.21c97.41,0,176.38-65,176.38-145.21,0-26.51-8.66-51.33-23.74-72.71,52.69,23.12,86.45,68.63,86.45,117.52C700,610.37,682.72,644,651.45,669.19Z"/><path class="cls-1" d="M460.93,288.14a7.81,7.81,0,0,0,7.81-7.81V257.81a7.81,7.81,0,0,0-15.62,0v22.52A7.81,7.81,0,0,0,460.93,288.14Z"/><path class="cls-1" d="M514.44,296.3a7.8,7.8,0,0,0,6.47-3.44L534,273.58A7.81,7.81,0,0,0,521,264.82L508,284.1a7.83,7.83,0,0,0,6.47,12.2Z"/><path class="cls-1" d="M555,326.52a7.75,7.75,0,0,0,3.81-1l21.41-12a7.81,7.81,0,1,0-7.65-13.62l-21.4,12A7.82,7.82,0,0,0,555,326.52Z"/><path class="cls-1" d="M400.92,292.86a7.81,7.81,0,0,0,12.94-8.76l-13.05-19.28a7.81,7.81,0,0,0-12.94,8.76Z"/><path class="cls-1" d="M341.63,313.5l21.41,12a7.82,7.82,0,1,0,7.65-13.63l-21.42-12a7.81,7.81,0,1,0-7.64,13.62Z"/><path class="cls-1" d="M365.06,398.77a97.15,97.15,0,0,0,3.08,37.63,95.93,95.93,0,0,0,17.39,33.46,93.48,93.48,0,0,1,15.1,26.63,83.52,83.52,0,0,1,5.15,28.79v23.9a55.14,55.14,0,0,0,110.27,0v-23.9a83.3,83.3,0,0,1,5.16-28.79,93.78,93.78,0,0,1,15.12-26.63,95.56,95.56,0,0,0,20.44-71.09c-4.18-36.94-24.95-61.8-51.44-74.57a103.85,103.85,0,0,0-88.8,0C390,337,369.25,361.83,365.06,398.77Zm91.63,46.72a37.67,37.67,0,0,0,4.46.46,36.28,36.28,0,0,0,4-.42v79.75H456.7V445.49ZM422.87,337.35a89.39,89.39,0,0,1,76.09,0c22.27,10.72,39.72,31.72,43.27,63a81.56,81.56,0,0,1-17.31,60.4,108.89,108.89,0,0,0-17.45,30.75,98.16,98.16,0,0,0-6.07,33.76H480.8v-85a57.92,57.92,0,0,0,10-7,7.81,7.81,0,1,0-10.3-11.75c-13.33,11.68-25.46,11.64-39.35-.09a7.82,7.82,0,1,0-10.09,11.94,61.48,61.48,0,0,0,10,6.8v85.09H420.44a98.4,98.4,0,0,0-6.07-33.76,108.41,108.41,0,0,0-17.45-30.75,81.3,81.3,0,0,1-14.68-28.38,82.42,82.42,0,0,1-2.63-32C383.15,369.07,400.63,348.07,422.87,337.35Z"/></g></svg>