<svg id="Layer_1" data-name="Layer 1" xmlns="http://www.w3.org/2000/svg" viewBox="0 0 1000 1000"><defs><style>.cls-1{fill:#fff;fill-rule:evenodd;}</style></defs><title>10_principal_marketing</title><path id="_10" data-name="10" class="cls-1" d="M569.92,518.39a88.16,88.16,0,0,0-25.58,54.76,1.11,1.11,0,0,1-1.11,1H496.69a1.1,1.1,0,0,0-1,.53,1.13,1.13,0,0,0,0,1.1c2.51,4.75,4.83,9.56,6.95,14.39a1.1,1.1,0,0,0,1,.66h39.88a1.11,1.11,0,0,1,1.1,1,88.53,88.53,0,1,0,25.27-73.44Zm-149,210L368.54,676a1.12,1.12,0,0,0-1.52,0c-1.24,1.09-2.47,2.24-3.67,3.45l-12.8,12.8a1.1,1.1,0,0,0,0,1.57l52.52,52.52c7.8,7.81,21.56,2.46,21.56-8.94A12.6,12.6,0,0,0,421,728.43ZM377.51,511.77a235.07,235.07,0,0,0-44.57-21.51,1.1,1.1,0,0,1-.74-1.11l.48-8.3A8.55,8.55,0,0,1,343.42,473c73.24,18.62,136,81.35,154.59,154.58a8.54,8.54,0,0,1-7.83,10.74l-8.3.48a1.1,1.1,0,0,1-1.11-.73C462.27,586.19,424.54,540.88,377.51,511.77ZM318,601.87,369.16,653a1.09,1.09,0,0,0,1.32.19,82.11,82.11,0,0,1,35.56-10L462.21,640a1.11,1.11,0,0,0,1-1.51C440.56,580,391,530.47,332.58,507.85a1.13,1.13,0,0,0-1,.1,1.1,1.1,0,0,0-.5.87L327.82,565a82.1,82.1,0,0,1-10,35.55A1.09,1.09,0,0,0,318,601.87Zm37.16,60.76a1.08,1.08,0,0,1,.32.82,1,1,0,0,1-.37.79c-1.2,1.09-2.38,2.21-3.55,3.38L337,682.15A34,34,0,1,1,288.88,634l14.54-14.54c1.16-1.16,2.29-2.35,3.37-3.55a1.06,1.06,0,0,1,.8-.37,1,1,0,0,1,.81.33Zm41.94-234.84a1.11,1.11,0,0,1,1-1.11,88.49,88.49,0,1,0-18.68-.27,1.1,1.1,0,0,1,1,1.1v39.95a1.09,1.09,0,0,0,.67,1q7.24,3.19,14.39,7a1.09,1.09,0,0,0,1.09,0,1.07,1.07,0,0,0,.54-.95V427.79Zm166.33-8.37L459.56,523.27a1.12,1.12,0,0,1-1.57,0l-10.23-10.22a1.13,1.13,0,0,1,0-1.58L551.61,407.62a1.11,1.11,0,0,0,.08-1.49,88.52,88.52,0,1,1,13.21,13.21A1.09,1.09,0,0,0,563.42,419.42ZM353,302.45h70.85a1.11,1.11,0,0,1,.68,2L397.61,325c-5.92,4.53-12.46,4.53-18.39,0l-26.9-20.55a1.08,1.08,0,0,1-.38-1.24A1.1,1.1,0,0,1,353,302.45Zm79.85,19.33v50.83a1.12,1.12,0,0,1-1.12,1.11H345.11a1.11,1.11,0,0,1-1.11-1.11V321.78a1.08,1.08,0,0,1,.62-1,1.1,1.1,0,0,1,1.17.11l23.09,17.65c12.11,9.24,27,9.24,39.07,0l23.1-17.65a1.1,1.1,0,0,1,1.17-.11A1.08,1.08,0,0,1,432.84,321.78Zm169.05,72.08,64.24-37.1a7.4,7.4,0,0,0,.08-12.86l-32.13-18.57L602.37,307l0,0a7.42,7.42,0,0,0-11.56,6.17v74.26h0A7.41,7.41,0,0,0,601.89,393.86Zm-7.74,164.43h17.33a1.11,1.11,0,0,0,1.11-1.11V535.47a15.21,15.21,0,1,1,30.42,0v21.71a1.11,1.11,0,0,0,1.11,1.11h10.3a34.23,34.23,0,1,1,0,68.46H594.15a1.12,1.12,0,0,1-1.12-1.12V559.4A1.12,1.12,0,0,1,594.15,558.29Z"/></svg>