<svg id="Layer_1" data-name="Layer 1" xmlns="http://www.w3.org/2000/svg" xmlns:xlink="http://www.w3.org/1999/xlink" viewBox="0 0 1000 1000"><defs><style>.cls-1{fill:none;}.cls-2{clip-path:url(#clip-path);}.cls-3,.cls-6{fill:#fff;}.cls-3{fill-rule:evenodd;}.cls-4{clip-path:url(#clip-path-2);}.cls-5{clip-path:url(#clip-path-3);}</style><clipPath id="clip-path"><rect id="SVGID" class="cls-1" x="381.67" y="300.88" width="178.33" height="219.73"/></clipPath><clipPath id="clip-path-2"><rect id="SVGID-2" data-name="SVGID" class="cls-1" x="250" y="625.27" width="217" height="73.85"/></clipPath><clipPath id="clip-path-3"><rect id="SVGID-3" data-name="SVGID" class="cls-1" x="533" y="625.27" width="217" height="73.85"/></clipPath></defs><title>11_principal_consultoria_c</title><g id="_11" data-name="11"><g class="cls-2"><path class="cls-3" d="M381.92,339.22V440.39a37.82,37.82,0,0,0,11.27,27.07,38.22,38.22,0,0,0,27.07,11.27H424v41.73l57.75-41.73h39.7a37.82,37.82,0,0,0,27.07-11.27,38.22,38.22,0,0,0,11.27-27.07V339.22a37.82,37.82,0,0,0-11.27-27.07,38.22,38.22,0,0,0-27.07-11.27H420.26a37.82,37.82,0,0,0-27.07,11.27A38.22,38.22,0,0,0,381.92,339.22Zm141.43,50.53a13.2,13.2,0,1,1-13.2-13.2A13.21,13.21,0,0,1,523.35,389.75Zm-39.25,0a13.2,13.2,0,1,1-13.2-13.2A13.21,13.21,0,0,1,484.1,389.75Zm-52.56-13.2a13.2,13.2,0,1,1-13.19,13.2A13.22,13.22,0,0,1,431.54,376.55Z"/></g><path class="cls-3" d="M358.46,491.93a58,58,0,1,1-58,58A58,58,0,0,1,358.46,491.93Z"/><g class="cls-4"><path class="cls-3" d="M318.19,625.58h80.53a68.35,68.35,0,0,1,68.12,68.12V699H250.07v-5.3A68.35,68.35,0,0,1,318.19,625.58Z"/></g><path class="cls-3" d="M641.54,491.93a58,58,0,1,1-58,58A58,58,0,0,1,641.54,491.93Z"/><g class="cls-5"><path class="cls-3" d="M601.28,625.58h80.53a68.35,68.35,0,0,1,68.12,68.12V699H533.16v-5.3A68.35,68.35,0,0,1,601.28,625.58Z"/></g><path class="cls-6" d="M573.42,340.8a38.91,38.91,0,0,1,11.84,8.12A38.17,38.17,0,0,1,596.54,376V477.15a37.77,37.77,0,0,1-11.28,27.07A38.17,38.17,0,0,1,558.2,515.5h-3.73v41.73L496.73,515.5H457a22.41,22.41,0,0,1-2.71-.11l31.81-23h35.3a52,52,0,0,0,52-52Z"/></g></svg>