<svg id="Layer_1" data-name="Layer 1" xmlns="http://www.w3.org/2000/svg" viewBox="0 0 1000 1000"><defs><style>.cls-1{fill:#fff;}</style></defs><title>12_principal_ntw_store</title><g id="_12" data-name="12"><path class="cls-1" d="M515.28,524.74a5.14,5.14,0,0,1-1.14.37c-9.48.62-18.91,1.87-28.44,1.81A149.37,149.37,0,0,1,462,525.19a57.88,57.88,0,0,1-16.6-5.09c-5.93-3-10.75-7.12-13.68-13.21a31.16,31.16,0,0,1-2.87-13.42c-.06-5.63,0-11.26,0-16.89q0-23.68,0-47.35a7.34,7.34,0,0,0-.32-3.25,6,6,0,0,0-3-.37H401.65c-1,0-2-.06-3.1-.1-.48-2.64-.2-5.12-.25-7.58s0-5,0-7.47v-7.28c.89-1,1.87-.77,2.75-.78,4.53,0,9,0,13.57,0,3.6,0,7.2,0,10.8,0a5.47,5.47,0,0,0,3.07-.44,5.24,5.24,0,0,0,.33-2.87c0-7.3,0-14.59,0-21.88,0-5.54,0-11.07,0-16.61a4.06,4.06,0,0,1,.51-2.81c.61-.05,1.33-.15,2.05-.16,17.56-.3,42.77-.15,45.42.26.66.88.39,1.93.39,2.91,0,8.77,0,17.54,0,26.31,0,4,0,7.93,0,11.9,0,.91.06,1.83.1,2.83a7.58,7.58,0,0,0,1.6.52c.92.08,1.85.05,2.77.05h73.65c1.18,0,2.37.07,3.65.11.43,1,.85,1.95,1.2,2.89q10.37,28.49,20.73,56.95c1.14,3.12,2.42,6.18,3.64,9.27a9.83,9.83,0,0,0,.66,1.52,1.62,1.62,0,0,0,2.76,0,11.16,11.16,0,0,0,.72-1.79c.59-1.75,1.15-3.5,1.73-5.25,1.15-3.51,2.48-6.94,3.87-10.36,2.33-5.73,4.43-11.54,6.62-17.32q6.3-16.69,12.59-33.4c.29-.77.64-1.52,1-2.39a20.64,20.64,0,0,1,2.18-.22h32.67c.64,0,1.28.09,2.09.16.44,1,.91,2,1.31,3q7.79,19.38,15.55,38.78c3.58,9,7.1,18,10.66,27a13.44,13.44,0,0,0,.95,2,1.06,1.06,0,0,0,1.82-.12,10.72,10.72,0,0,0,.61-1.54q8.39-23.74,16.78-47.48,3.32-9.39,6.71-18.76c.34-.94.72-1.87,1-2.69,2.59-.51,30.6-.73,41.4-.36a14.49,14.49,0,0,1,1.7.26,10.77,10.77,0,0,1-.33,1.46q-24.21,60.48-48.51,121c-.78.08-1.4.2-2,.2H665.91c-.54,0-1.09-.08-1.61-.12a9.26,9.26,0,0,1-1.6-3.26q-10.19-25.58-20.31-51.18c-2.3-5.83-4.44-11.73-6.66-17.59-.13-.35-.28-.69-.4-1A1.5,1.5,0,0,0,634,451a1.47,1.47,0,0,0-1.51,1c-.4.93-.79,1.87-1.15,2.81-4.81,12.48-9.64,25-14.4,37.45-3.81,10-7.54,20-11.31,30-.35,1-.76,1.87-1.08,2.66l-.43.22a1.12,1.12,0,0,1-.26.08c-.55,0-1.1.09-1.65.09l-34.34,0a6,6,0,0,1-.86-.13,6.49,6.49,0,0,1-1.51-2.86q-7.46-18-14.89-36.07L526.82,428.7c-.39-.93-.82-1.84-1.17-2.62a5.44,5.44,0,0,0-3.15-.47H480.69a7.19,7.19,0,0,0-3.13.35,14.26,14.26,0,0,0-.32,1.53c-.05.73,0,1.47,0,2.21v58.42c0,.92,0,1.85,0,2.77a7.32,7.32,0,0,0,4.25,6.63A24.87,24.87,0,0,0,490,500a102.11,102.11,0,0,0,22.38.22c.9-.08,1.81,0,2.84,0a6.6,6.6,0,0,1,.32,1.36q0,11.08,0,22.15A6.36,6.36,0,0,1,515.28,524.74Z"/><path class="cls-1" d="M250.5,525.12c-.45-2.78-.69-110.23-.31-120.41,0-.63.16-1.25.26-2a14.4,14.4,0,0,1,1.92-.31c2.21,0,4.43,0,6.64,0h32.66c1.1,0,2.19.06,3.13.09a4.56,4.56,0,0,1,.61,3.15c0,5.35,0,10.7,0,16.05,0,.83,0,1.66.08,2.49a.84.84,0,0,0,1.45.5,24.37,24.37,0,0,0,1.72-1.8,70.42,70.42,0,0,1,13.52-11.8,66.08,66.08,0,0,1,27.66-10.62,84.12,84.12,0,0,1,18.5-.38,75.08,75.08,0,0,1,12.83,2,40.83,40.83,0,0,1,14.29,6.43A26.9,26.9,0,0,1,396.37,427a51.48,51.48,0,0,1,.5,7.44q0,43.45,0,86.92a12.64,12.64,0,0,1-.21,3.61,6.7,6.7,0,0,1-3,.33c-7.29,0-14.58,0-21.86,0H351.3c-1,0-2-.06-3.11-.09a12,12,0,0,1-.34-1.69c-.06-.83,0-1.66,0-2.49q0-38.21,0-76.4a31.62,31.62,0,0,0-.31-5c-1-6.57-5.12-10.5-11.71-11.38a39.65,39.65,0,0,0-23.09,4A90.39,90.39,0,0,0,300.53,440a2.82,2.82,0,0,0-1.24,2.59c0,2.49,0,5,0,7.47l0,64.22c0,2.68,0,5.35,0,8a5.44,5.44,0,0,1-.39,2.78,7.54,7.54,0,0,1-3.21.27q-19.8,0-39.58,0c-1.29,0-2.59,0-3.88,0C251.7,525.31,251.16,525.2,250.5,525.12Z"/><path class="cls-1" d="M723.78,615.88l2.07,6.16a12.89,12.89,0,0,1-1.4,1.44c-2.12,1.62-4.24,3.26-6.44,4.77a14.05,14.05,0,0,1-5.88,2.3,18.12,18.12,0,0,0-2.64.79,15,15,0,0,1-8.46.29,8,8,0,0,1-5.82-5c-.48-1.2-.85-2.44-1.32-3.64a12.4,12.4,0,0,0-1.1-2.22,1.65,1.65,0,0,0-2.43-.47,11.49,11.49,0,0,0-1.92,1.56A36.31,36.31,0,0,1,682,627c-5.13,3.11-10.27,6.19-15.41,9.29a7.5,7.5,0,0,1-6.6,1c-2-.69-2.88-2-2.23-4a24.82,24.82,0,0,1,2.06-4.51A54.57,54.57,0,0,0,666,611.65a28.59,28.59,0,0,0,.28-5.78,5.42,5.42,0,0,0-1.71-4,3,3,0,0,0-4-.43,30.19,30.19,0,0,0-6.17,5.1,87.32,87.32,0,0,1-8,7.66,75,75,0,0,1-6.36,5.3,4.1,4.1,0,0,0-1,1c-2.41,3.26-5.77,5.4-9.09,7.56a9.21,9.21,0,0,1-3.09,1.15,4.37,4.37,0,0,1-4.71-1.55,11.07,11.07,0,0,0-1-1c-.65.55-1.24,1-1.75,1.47a31,31,0,0,1-12.82,7.41,36.16,36.16,0,0,1-6,1.09,7.4,7.4,0,0,1-4.53-1,10.74,10.74,0,0,1-5.37-12c.37-1.52,1-3,1.42-4.48a11.81,11.81,0,0,0,.49-2.42,1.13,1.13,0,0,0-1.57-1,2.24,2.24,0,0,0-.5.22c-2.31,1.66-4.8,3.08-6.6,5.41a15.43,15.43,0,0,1-3.4,3.2,76.74,76.74,0,0,0-11.4,10.05c-1.08,1.13-2.23,2.2-3.4,3.25a8.93,8.93,0,0,1-4.09,2.22,8.69,8.69,0,0,1-3,.17,4.58,4.58,0,0,1-4.19-4.44,19.79,19.79,0,0,1,.05-4.42c.51-4.21,1.06-8.39,2.69-12.39a52.77,52.77,0,0,0,2.06-7.74,18.18,18.18,0,0,1,2.16-5.66,2.66,2.66,0,0,0,.44-1c0-.31,0-.82-.25-.93s-.67,0-1,.15c-.16.05-.29.23-.41.37-2.68,3.46-6.06,6.18-9.34,9-1.67,1.45-3.36,2.88-5,4.38a28,28,0,0,0-3.27,3.36,5.54,5.54,0,0,1-3.68,2.22c-2.82.44-5.65.93-8.49,1.15a8,8,0,0,0-4.94,2.07A83.53,83.53,0,0,1,509,637.88a57.21,57.21,0,0,1-11.31,4.42,6.4,6.4,0,0,1-4.06-.15,12.85,12.85,0,0,1-4.94-3c-1.35-1.38-1.58-2.57-.65-4.26a8.14,8.14,0,0,1,1.87-2.36,23.26,23.26,0,0,1,4.35-2.91c6.17-2.92,12.41-5.7,18.62-8.53l.25-.12c1.26-.47,2.05-.35,2.47.37a2,2,0,0,1-.69,2.46,22.79,22.79,0,0,1-2.51,1.67c-.77.5-1.55,1-2.28,1.52a.74.74,0,0,0-.1.73,1.71,1.71,0,0,0,.85.54,1.21,1.21,0,0,0,.78-.22,28.24,28.24,0,0,0,6.67-5.34,2.31,2.31,0,0,0,.6-1.49,3.07,3.07,0,0,1,1.27-2.6,20,20,0,0,0,2.23-2.45,3.74,3.74,0,0,0,.65-3.9,34.78,34.78,0,0,0-2.16-4.77,66.66,66.66,0,0,0-12.48-15.45,19,19,0,0,1-5.57-7.45,6.51,6.51,0,0,0-1.75-2.45,11.57,11.57,0,0,1-3.59-8.43c-.26-5.18.54-10.12,3.68-14.46a8.48,8.48,0,0,0,.87-1.41,26.35,26.35,0,0,1,6.38-8.28,73,73,0,0,1,14.25-10.44,20.7,20.7,0,0,0,2.6-1.58,27.23,27.23,0,0,1,7.1-3.68c2.06-.78,4.08-1.71,6.13-2.53q2.7-1.08,5.42-2.08a7.42,7.42,0,0,1,1.61-.39c2.84-.36,4.65,1.13,4.8,4a18.75,18.75,0,0,1-.94,6.81,6,6,0,0,1-2.21,3.09c-5.15,3.75-10.28,7.53-15.75,10.79a43.06,43.06,0,0,1-4.45,2.24,6.16,6.16,0,0,1-2.13.46,1.66,1.66,0,0,1-1.74-2.21,4.73,4.73,0,0,1,1-1.92,33.81,33.81,0,0,1,2.71-2.35c.92-.77,1.88-1.49,2.74-2.31.69-.65.78-1.32.38-1.69-.6-.58-1.21-.22-1.78.05a6.21,6.21,0,0,0-1.16.75,73,73,0,0,0-9.77,8.57c-.81.88-1.54,1.84-2.3,2.77-2.54,3.12-2.91,6.69-2,10.46a19.19,19.19,0,0,0,2.8,6.6c2.19,3.19,4.39,6.38,6.72,9.47,3.27,4.35,6.67,8.61,10,12.91a16.6,16.6,0,0,1,3.61,11.36c-.08,1.75-.17,3.5-.25,5.25,0,.87.08,1.71,1,2a2.31,2.31,0,0,0,2.56-.52.91.91,0,0,0,.18-.21c2.2-3,5.08-5.34,7.71-7.92a135.31,135.31,0,0,0,17.64-22c1.28-1.91,2.58-3.82,3.81-5.77.42-.67,1.13-1.45.61-2.27-.63-1-1.64-.46-2.51-.27a5.9,5.9,0,0,1-1.09.18c-4.25,0-8.49,0-12.73-.11-1.51,0-2.78-.92-4.06-1.65a1.51,1.51,0,0,1-.72-1.42,16.72,16.72,0,0,1,1.73-7.48,3.39,3.39,0,0,1,3.32-2.06,2.44,2.44,0,0,1,.27,0c4.41.48,8.84.08,13.25.38a8.82,8.82,0,0,0,1.92,0,11,11,0,0,1,5.19-.06,2.23,2.23,0,0,0,2.28-.72A24.32,24.32,0,0,0,578.9,561c1-1.45,1.74-3,2.6-4.56a16.22,16.22,0,0,1,3.5-4.6,4.07,4.07,0,0,1,3-1.05,2.67,2.67,0,0,1,2.67,2.35,6.58,6.58,0,0,1-.31,3.54c-.59,1.55-1.17,3.11-1.82,4.63s-.89,2.75.33,4.1a2.9,2.9,0,0,1,.56,2.06c-.26,2.47-.65,4.93-1.07,7.38a2.78,2.78,0,0,1-2.73,2.63,18.75,18.75,0,0,0-2.44.47,2.38,2.38,0,0,0-2,1.71c-2.93,8.16-6,16.25-8.82,24.47-1.7,5.06-2.91,10.29-4.27,15.46a10.12,10.12,0,0,0-.25,3,1.38,1.38,0,0,0,2.16,1.23,14.8,14.8,0,0,0,2.1-1.32c2.59-1.93,5.21-3.83,7.73-5.84a18.84,18.84,0,0,0,2.86-3,10.57,10.57,0,0,1,2.85-2.57,40,40,0,0,0,7.28-5.48c1.26-1.22,2.68-2.27,4-3.38a28.19,28.19,0,0,0,3.76-3.65,37.25,37.25,0,0,1,3.81-3.61c2.12-1.91,4.25-3.81,6.42-5.67a31.74,31.74,0,0,1,3.28-2.52,6.25,6.25,0,0,1,4.53-.83,9.07,9.07,0,0,1,1.88.8c-.32.8-.58,1.45-.85,2.1s-.88,1.23-.55,2.24a4.7,4.7,0,0,0,1.45,0c1.59-.47,3.15-1,4.72-1.57a8.88,8.88,0,0,1,5.18,0,7.44,7.44,0,0,1,5.66,5.5,19.82,19.82,0,0,1,.11,9.59,23.89,23.89,0,0,1-4.16,9.28c-.16.22-.34.43-.51.65a1.31,1.31,0,0,0-.16,1.54,1.5,1.5,0,0,0,1.6.84,3,3,0,0,0,1.28-.44,7.7,7.7,0,0,0,1.88-1.61,29.1,29.1,0,0,1,5.33-5.19,57.14,57.14,0,0,0,8.86-8.73c1-1.22,1.85-2.53,2.76-3.8A3.52,3.52,0,0,0,654,594c-.52-1.8.26-3,1.61-4a29.5,29.5,0,0,1,6.58-4.05c3-1.27,5.73-1,8.08,1.51a41.74,41.74,0,0,0,3.44,3.2,11.71,11.71,0,0,1,3.9,6.54c1.15,5.27,1,10.44-1.44,15.4-1,2-2,4-2.82,6a23.85,23.85,0,0,0-1.27,4.22c-.27,1.27.58,2,1.78,1.56a10.08,10.08,0,0,0,2.45-1.24c1.13-.79,2.15-1.73,3.24-2.59,1.74-1.37,3.5-2.7,5.23-4.08a20.58,20.58,0,0,0,1.61-1.49c1.61-1.64,3.14-3.37,4.84-4.92a4.94,4.94,0,0,0,1.82-3c.06-.45.27-.88.35-1.33,1.22-6.72,4.63-12.43,8.55-17.81a59.59,59.59,0,0,1,7.35-7.9,12,12,0,0,1,9.81-3.58c2.16.23,3.72,1.13,4.23,3.32a44.67,44.67,0,0,1,.8,4.9,4.79,4.79,0,0,1-.31,1.88,34.33,34.33,0,0,1-8.48,14.4c-2.81,2.8-5.64,5.58-8.46,8.37a20.77,20.77,0,0,0-1.76,1.75A5.08,5.08,0,0,0,707,619a10.23,10.23,0,0,0,6.73.83,31.13,31.13,0,0,0,7-2.43C721.65,616.91,722.55,616.48,723.78,615.88ZM607.49,626.81c.51-.07,1.15-.14,1.79-.26a13.68,13.68,0,0,0,7.16-3.92c1.25-1.22,2.29-2.66,3.53-3.88,4-3.88,3-3.5,5.27-8.59a6.9,6.9,0,0,0,.09-5.35,3.5,3.5,0,0,0-3.05-2.79,12.37,12.37,0,0,1-1.89-.37,3.46,3.46,0,0,0-3.86,1.46c-.95,1.24-1.89,2.5-2.82,3.76a6.32,6.32,0,0,1-3.72,2.7,5,5,0,0,0-3.47,2.9,41.46,41.46,0,0,0-3.39,8.45,8.39,8.39,0,0,0-.25,2.18,3.36,3.36,0,0,0,3.1,3.6C606.44,626.77,606.9,626.77,607.49,626.81Zm105.79-34.07c0-1.54-.92-2.21-1.86-1.72a8.19,8.19,0,0,0-2,1.43,29.57,29.57,0,0,0-4.81,6.67,10.13,10.13,0,0,0-.7,1.78,1.11,1.11,0,0,0,.41,1.45,1.44,1.44,0,0,0,1.55-.15,4,4,0,0,0,.6-.56c1.32-1.4,2.65-2.78,3.93-4.21a16.69,16.69,0,0,0,2-2.57A10.32,10.32,0,0,0,713.28,592.74Z"/></g></svg>