<svg id="Layer_1" data-name="Layer 1" xmlns="http://www.w3.org/2000/svg" xmlns:xlink="http://www.w3.org/1999/xlink" viewBox="0 0 1000 1000"><defs><style>.cls-1{fill:none;}.cls-2{clip-path:url(#clip-path);}.cls-3{fill:#fff;fill-rule:evenodd;}</style><clipPath id="clip-path"><rect id="SVGID" class="cls-1" x="250" y="254.09" width="500" height="491.82"/></clipPath></defs><title>13_principal_eventos</title><g id="_13" data-name="13"><g class="cls-2"><path class="cls-3" d="M623.6,460.74,594.54,410.4a33.84,33.84,0,0,0-58.41-.32h0c-23.1,39-48,88.49-85.17,122.13l-50.81,29.33a73.44,73.44,0,0,0-32.12,38H280.88a30.74,30.74,0,0,1-30.68-30.68v-214H630.69V457.78A49.94,49.94,0,0,0,623.6,460.74ZM300.79,520.06a5.12,5.12,0,0,0-5.12,5.12V549a5.12,5.12,0,0,0,5.12,5.12h23.83a5.12,5.12,0,0,0,5.11-5.12V525.18a5.12,5.12,0,0,0-5.11-5.12Zm38.32-123.73L331,421.27a5.81,5.81,0,0,1-5.53,4H299.25a5.81,5.81,0,0,0-3.41,10.51l21.22,15.42a5.82,5.82,0,0,1,2.11,6.49l-8.11,25a5.81,5.81,0,0,0,8.94,6.49l21.22-15.41a5.81,5.81,0,0,1,6.83,0l21.22,15.41a5.81,5.81,0,0,0,8.94-6.49l-8.1-25a5.79,5.79,0,0,1,2.11-6.49l21.22-15.42A5.81,5.81,0,0,0,390,425.29H363.8a5.81,5.81,0,0,1-5.53-4l-8.11-24.94a5.81,5.81,0,0,0-11.05,0Zm89.42,59.86a5.12,5.12,0,0,0-5.12,5.12v23.83a5.12,5.12,0,0,0,5.12,5.12h23.83a5.12,5.12,0,0,0,5.12-5.12V461.31a5.12,5.12,0,0,0-5.12-5.12Zm-63.87,63.87a5.12,5.12,0,0,0-5.12,5.12V549a5.12,5.12,0,0,0,5.12,5.12h23.83a5.12,5.12,0,0,0,5.12-5.12V525.18a5.12,5.12,0,0,0-5.12-5.12Zm63.87-127.74a5.12,5.12,0,0,0-5.12,5.12v23.82a5.12,5.12,0,0,0,5.12,5.12h23.83a5.12,5.12,0,0,0,5.12-5.12V397.44a5.12,5.12,0,0,0-5.12-5.12ZM600.05,279.68a30.75,30.75,0,0,1,30.64,30.69v28.09H250.2V310.37a30.75,30.75,0,0,1,30.64-30.69v20.94a24.11,24.11,0,0,0,24.06,24.06h15.21a24.1,24.1,0,0,0,24.05-24.06V279.68h22v20.94a24.11,24.11,0,0,0,24.05,24.06H405.4a24.11,24.11,0,0,0,24.06-24.06V279.68h22v20.94a24.11,24.11,0,0,0,24.06,24.06H490.7a24.1,24.1,0,0,0,24.05-24.06V279.68h22v20.94a24.11,24.11,0,0,0,24,24.06H576a24.11,24.11,0,0,0,24.06-24.06ZM304.9,254.09h15.21a7.69,7.69,0,0,1,7.67,7.67v38.86a7.68,7.68,0,0,1-7.67,7.67H304.9a7.68,7.68,0,0,1-7.67-7.67V261.76A7.68,7.68,0,0,1,304.9,254.09Zm255.88,0H576a7.68,7.68,0,0,1,7.67,7.67v38.86a7.68,7.68,0,0,1-7.67,7.67H560.78a7.68,7.68,0,0,1-7.67-7.67V261.76A7.69,7.69,0,0,1,560.78,254.09Zm-85.29,0H490.7a7.69,7.69,0,0,1,7.67,7.67v38.86a7.68,7.68,0,0,1-7.67,7.67H475.49a7.68,7.68,0,0,1-7.67-7.67V261.76A7.68,7.68,0,0,1,475.49,254.09Zm-85.3,0H405.4a7.68,7.68,0,0,1,7.67,7.67v38.86a7.68,7.68,0,0,1-7.67,7.67H390.19a7.68,7.68,0,0,1-7.67-7.67V261.76A7.69,7.69,0,0,1,390.19,254.09ZM628.2,628c-31.46.09-63.37,2.63-94.59,11.85a15.56,15.56,0,0,0-1.36-3L474.8,537.37a16.14,16.14,0,0,0-2.39-3.18c22.27-23.12,40.22-51.41,56.21-78.62ZM526.26,659.26l44.21,76.58-9.57,5.53a31.65,31.65,0,0,1-43.13-11.56l-28.43-49.24ZM631.81,475a33.94,33.94,0,0,1,33.82,58.6Zm54.94,127.94a17.46,17.46,0,0,1-15.83,26.16c-7.85-.3-15.76-.63-23.69-.82l-109.11-189c4.11-7.16,8.18-14.13,12.1-20.8a17.45,17.45,0,0,1,30.13.14ZM518.07,645.07l-52.28,30.18a57.45,57.45,0,1,1-57.46-99.51l52.28-30.18Zm144-208.57a8.19,8.19,0,0,1-15.82-4.24l8.5-31.75a8.19,8.19,0,1,1,15.83,4.24Zm45.69,102.78A8.19,8.19,0,0,1,712,523.46L743.81,532a8.19,8.19,0,1,1-4.25,15.82Zm-1.57-60.82a8.19,8.19,0,0,1-8.2-14.19l28.53-16.46A8.19,8.19,0,1,1,734.73,462Z"/></g></g></svg>