<svg id="Layer_1" data-name="Layer 1" xmlns="http://www.w3.org/2000/svg" viewBox="0 0 1000 1000"><defs><style>.cls-1{fill:#fff;}</style></defs><title>14_principal_radar</title><g id="_14" data-name="14"><path class="cls-1" d="M476.18,488.54a21.55,21.55,0,1,0,36.5,22.92l25-39.72a51.58,51.58,0,1,1-36.52-22.93Zm11.07-169.19A180.84,180.84,0,0,0,313.78,492.81H363.2a131.45,131.45,0,0,1,124.05-124ZM689.46,507.21C685.76,609.26,603.69,691.34,501.63,695v49.4C631,740.71,735.12,636.55,738.85,507.22H689.46ZM487.25,434.39v-51.2A117.07,117.07,0,0,0,377.62,492.82h51.2A66,66,0,0,1,487.25,434.39ZM501.64,565.6v51.23A117.1,117.1,0,0,0,611.27,507.2H560A66,66,0,0,1,501.64,565.6Zm124-58.39a131.44,131.44,0,0,1-124,124v49.42A180.74,180.74,0,0,0,675.08,507.21ZM487.25,255.56C357.91,259.32,253.76,363.48,250,492.81h49.4C303.1,390.74,385.17,308.66,487.25,305Zm-124,251.65H313.79A180.79,180.79,0,0,0,487.26,680.64V631.22A131.44,131.44,0,0,1,363.21,507.21Zm124,58.39a66,66,0,0,1-58.42-58.39h-51.2A117.09,117.09,0,0,0,487.26,616.84V565.6Zm0,178.83V695C385.17,691.33,303.1,609.25,299.4,507.2H250C253.76,636.54,357.91,740.7,487.25,744.43Zm62.62-373.3a21.53,21.53,0,0,1,31.86-5.24l46.69,36.61L675,335.11c-2.51-2.73-5.07-5.42-7.67-8a243.84,243.84,0,0,0-165.72-71.53V432.7a66.77,66.77,0,0,1,8.65,1.49Zm152.53.15-51.47,74.47a21.61,21.61,0,0,1-31.08,4.8l-46.19-36.22-26.88,42.81a67.22,67.22,0,0,1,14.94,35.67H738.85A243.07,243.07,0,0,0,702.4,371.28Zm38.21-103.22-47.5,15.58a7.18,7.18,0,0,0,4.43,13.67l27.29-8.94L631.56,423.24l-58.8-46.1a7.16,7.16,0,0,0-10.71,1.64L488.36,496.19a7.17,7.17,0,0,0,12.14,7.64L570,393.15l58.77,46.07a7.21,7.21,0,0,0,10.3-1.57l96.2-139.19-.46,26.3a7.17,7.17,0,1,0,14.33.24l.88-49.51A7.18,7.18,0,0,0,740.61,268.06Z"/></g></svg>