<svg id="Layer_1" data-name="Layer 1" xmlns="http://www.w3.org/2000/svg" viewBox="0 0 1000 1000"><defs><style>.cls-1{fill:#fff;}</style></defs><title>16_principal_proximos</title><g id="_16" data-name="16"><path class="cls-1" d="M277.49,517H516.23L405.39,627.87l24.12,24.18,140-140a17,17,0,0,0,0-24.12l-140-140-24.12,24.18L516.23,482.91H277.49Z"/><path class="cls-1" d="M472.48,250a247,247,0,0,0-113.92,27.39l15.59,30.4a214,214,0,0,1,98.33-23.6c119,0,215.85,96.86,215.85,215.84s-96.8,215.85-215.85,215.85a216.18,216.18,0,0,1-100.9-25l-16,30.21A250.81,250.81,0,0,0,472.48,750c137.85,0,250-112.12,250-250S610.33,250,472.48,250Z"/></g></svg>